<svg xmlns="http://www.w3.org/2000/svg" viewBox="0 0 739.16 1146.18"><defs><style>.a,.b{fill:#e9a854;}.b{stroke:#201600;stroke-linecap:round;stroke-linejoin:round;stroke-width:5.67px;}</style></defs><title>logo</title><path class="a" d="M624.11,933.55l-.45,0a2.84,2.84,0,0,1-2.36-3.24c0-.19,1.68-11.67-5.28-19.78-4.81-5.61-12.69-8.45-23.42-8.45H233.18c-2,.1-26.38,1-43.8-15.36-11.19-10.53-16.86-25.75-16.86-45.22a2.84,2.84,0,1,1,5.67,0c0,17.83,5.06,31.64,15,41.06,16,15.05,39.48,13.87,39.71,13.86H592.6c12.49,0,21.83,3.53,27.76,10.48C629,917,627,930.59,626.9,931.16A2.83,2.83,0,0,1,624.11,933.55Z" transform="translate(-58.43 -20.99)"/><path class="a" d="M154.06,842.1c-5.13,0-19.46-1-30.24-11-7.78-7.24-12-17.56-12.5-30.72-6.89-.25-24.5-2.16-37.64-14.73C63.56,776,58.43,762.19,58.43,744.72c0-17.23,5.11-31,15.19-40.88,16.7-16.4,40.85-16.15,41.87-16.12h94a2.84,2.84,0,0,1,0,5.67h-94c-.28,0-22.91-.19-37.88,14.54-8.93,8.79-13.46,21.16-13.46,36.8,0,15.84,4.53,28.22,13.46,36.79,14.55,14,36.2,13.22,36.42,13.21a2.84,2.84,0,0,1,3,2.83c0,12.85,3.6,22.73,10.7,29.36,11.24,10.49,27.76,9.49,27.93,9.48H234.1a2.84,2.84,0,1,1,0,5.67H155.86C155.6,842.07,155,842.1,154.06,842.1Z" transform="translate(-58.43 -20.99)"/><path class="a" d="M662.85,914.3a2.83,2.83,0,0,1-2.83-2.83c0-18.52-5.19-32.68-15.41-42.08-15.92-14.63-39-12.87-39.27-12.85H419.1a2.84,2.84,0,0,1,0-5.67H605c2.2-.16,26.09-1.58,43.41,14.3,11.47,10.52,17.29,26.09,17.29,46.29A2.84,2.84,0,0,1,662.85,914.3Z" transform="translate(-58.43 -20.99)"/><path class="a" d="M354.21,856.56c-2.52,0-16.06-.47-25.74-9.86-6.44-6.25-9.7-15-9.7-26a2.84,2.84,0,1,1,5.67,0c0,9.38,2.67,16.74,7.95,21.88,8.76,8.53,22,8.29,22.13,8.28H381.1a2.84,2.84,0,1,1,0,5.67H354.21Z" transform="translate(-58.43 -20.99)"/><path class="a" d="M354.1,839.55a2.83,2.83,0,0,1-2.82-2.62c0-.4-.66-9.79,5.6-16.54,4-4.32,9.8-6.51,17.22-6.51,5.65,0,10-1.58,13.08-4.7,5-5.16,4.84-13,4.84-13.12v-.3c0-.11.73-12-6.78-20-4.75-5.09-11.86-7.67-21.14-7.67H273.69c-1.39.08-13.46.51-22.2-7.62-5.79-5.39-8.72-13.2-8.72-23.21a2.84,2.84,0,1,1,5.67,0c0,8.35,2.31,14.75,6.88,19,7.25,6.78,18,6.15,18.09,6.14H364.1c10.94,0,19.46,3.2,25.33,9.51,8.79,9.46,8.35,22.51,8.26,24.13,0,1.37-.09,10.53-6.4,17.07-4.14,4.29-9.92,6.46-17.19,6.46-5.76,0-10.14,1.57-13,4.67-4.58,4.9-4.14,12.22-4.13,12.29a2.84,2.84,0,0,1-2.63,3Z" transform="translate(-58.43 -20.99)"/><path class="a" d="M244.6,725.55h-.2a2.83,2.83,0,0,1-2.63-3c0-.38,3.1-37.89,38.08-37.89H548.72c.29,0,28.61.92,47.66-17.4,11.68-11.21,17.6-27.36,17.6-48,0-20.86-5.92-37-17.59-48-18.58-17.44-45.84-15.94-46.11-15.92H511.77a2.84,2.84,0,1,1,0-5.67H550c2.19-.12,30.19-1.34,50.21,17.42,12.88,12.08,19.42,29.62,19.42,52.13,0,22.24-6.52,39.77-19.38,52.1-20.56,19.73-49.77,19-51.72,18.94H279.85c-12.39,0-21.58,5.37-27.32,16a46.78,46.78,0,0,0-5.1,16.65A2.84,2.84,0,0,1,244.6,725.55Z" transform="translate(-58.43 -20.99)"/><path class="a" d="M633.17,693.56H594.44a2.84,2.84,0,1,1,0-5.67H632.6c.27,0,17.8.43,29.48-10.88,7.09-6.87,10.69-16.72,10.69-29.28a2.84,2.84,0,0,1,.85-2,2.9,2.9,0,0,1,2-.81c.24,0,24.32.39,40.33-15.24,9.63-9.41,14.52-22.76,14.52-39.67a2.84,2.84,0,1,1,5.67,0c0,18.52-5.48,33.25-16.27,43.76-14.51,14.14-34.22,16.42-41.54,16.77-.52,12.87-4.68,23.16-12.39,30.61C653.78,692.9,636.8,693.56,633.17,693.56Z" transform="translate(-58.43 -20.99)"/><path class="a" d="M687.77,614.38a2.83,2.83,0,0,1-2.83-2.69c-.78-15.46,12.85-26.21,25.93-27.3h.23c4.8,0,9.59.07,14.23.13,14.1.19,27.42.37,41.47-1.11a27.67,27.67,0,0,0,23.6-18.06c1.69-5.94,1.94-11.38.89-18.72a35.08,35.08,0,0,0-7.3-15.51c-5.47-5.42-11.65-8.06-18.89-8.06-50.58-1.38-102-1.33-151.65-1.28-22.11,0-45,.05-67.47,0a2.84,2.84,0,0,1,0-5.67h0c22.48.1,45.33.08,67.43.05,49.73-.05,101.16-.1,151.74,1.28h0c8.67,0,16.4,3.31,22.93,9.83l.21.23a41.06,41.06,0,0,1,8.58,18.31c1.18,8.3.87,14.44-1.07,21.24l-.06.19A33.36,33.36,0,0,1,767.34,589c-14.33,1.51-27.81,1.33-42.09,1.14-4.58-.06-9.3-.13-14-.13-10.45.93-21.2,9.7-20.62,21.36a2.84,2.84,0,0,1-2.69,3Z" transform="translate(-58.43 -20.99)"/><path class="a" d="M466.6,521.72H418.44a2.84,2.84,0,1,1,0-5.67H466.6a2.84,2.84,0,1,1,0,5.67Z" transform="translate(-58.43 -20.99)"/><path class="a" d="M287.1,555.05a2.83,2.83,0,0,1-2.83-2.83c0-10.61,3.17-19.11,9.42-25.26,10.35-10.2,25.33-10.07,26-10.08h52a2.84,2.84,0,1,1,0,5.67h-52c-.17,0-13.34,0-22,8.48-5.1,5.05-7.69,12.17-7.69,21.19A2.84,2.84,0,0,1,287.1,555.05Z" transform="translate(-58.43 -20.99)"/><path class="a" d="M288.29,556.55c-1.67,0-15.84-.3-25.77-10.08-6.25-6.15-9.42-14.65-9.42-25.25a2.84,2.84,0,1,1,5.67,0c0,9,2.59,16.13,7.69,21.18,8.63,8.53,21.79,8.47,21.94,8.48h45.2a2.84,2.84,0,1,1,0,5.67H288.29Z" transform="translate(-58.43 -20.99)"/><path class="a" d="M704.35,830.05h-81a29.84,29.84,0,0,1,0-59.67h1.8a29.87,29.87,0,0,1,29.7-27h18a29.87,29.87,0,0,1,29.7,27h1.8a29.84,29.84,0,1,1,0,59.67Zm-81-54a24.17,24.17,0,0,0,0,48.33h81a24.17,24.17,0,1,0,0-48.33h-4.5a2.83,2.83,0,0,1-2.83-2.83,24.19,24.19,0,0,0-24.17-24.17h-18a24.19,24.19,0,0,0-24.16,24.17,2.84,2.84,0,0,1-2.84,2.83Z" transform="translate(-58.43 -20.99)"/><path class="a" d="M585.1,758.05a20.84,20.84,0,1,1,20.84-20.83A20.85,20.85,0,0,1,585.1,758.05Zm0-36a15.17,15.17,0,1,0,15.17,15.17A15.18,15.18,0,0,0,585.1,722.05Z" transform="translate(-58.43 -20.99)"/><path class="a" d="M477.35,960.51c-.65,0-1.14,0-1.42,0H326.1c-17.35,0-23.11-15.33-23.74-23.43,0-.11,0-.22,0-.32V909.67a4.25,4.25,0,0,1,8.5,0v26.86c.21,2.11,2,15.43,15.25,15.43h150l.45,0s6.2.52,10.28-3.2c2.67-2.43,4-6.32,4-11.57v-29a4.25,4.25,0,1,1,8.5,0v29c0,7.79-2.31,13.82-6.88,17.94C487.19,959.91,480.45,960.51,477.35,960.51Z" transform="translate(-58.43 -20.99)"/><path class="a" d="M306.6,768.47a4.25,4.25,0,0,1-4.24-4,9.65,9.65,0,0,1,.33-3.31l.1-.42c3.46-14.65,15.46-23.36,26-31,3-2.16,5.78-4.19,8.38-6.32,5.74-4.7,15.88-14.42,19.29-26.77a4.25,4.25,0,0,1,8.2,2.27c-4,14.61-15.59,25.75-22.11,31.08-2.79,2.28-5.83,4.49-8.77,6.62-9.84,7.15-20,14.53-22.75,26.12l-.12.49a3.74,3.74,0,0,0-.11.46h0a2.49,2.49,0,0,0,0,.37,4.25,4.25,0,0,1-4,4.47Z" transform="translate(-58.43 -20.99)"/><path class="a" d="M493.09,769.16h-.23a4.25,4.25,0,0,1-4-4.46,6.26,6.26,0,0,0-.22-2c-2.73-11.59-12.91-19-22.76-26.12-2.93-2.13-6-4.34-8.76-6.62-6.53-5.34-18.07-16.47-22.11-31.08a4.25,4.25,0,0,1,8.2-2.27c3.41,12.35,13.55,22.07,19.29,26.77,2.6,2.12,5.41,4.16,8.38,6.32,10.58,7.68,22.58,16.39,26,31a14.9,14.9,0,0,1,.43,4.42A4.25,4.25,0,0,1,493.09,769.16Z" transform="translate(-58.43 -20.99)"/><path class="a" d="M494.1,854.47a4.25,4.25,0,0,1-4.25-4.25v-64.5a4.25,4.25,0,1,1,8.5,0v64.5A4.25,4.25,0,0,1,494.1,854.47Z" transform="translate(-58.43 -20.99)"/><path class="a" d="M458.51,941.81H382.6a2.84,2.84,0,0,1,0-5.67h75.63c.09,0,8.71.27,14.42-5.22,3.48-3.35,5.24-8.25,5.24-14.57a2.84,2.84,0,0,1,5.67,0c0,7.94-2.36,14.23-7,18.7C469.9,941.38,460.8,941.81,458.51,941.81Z" transform="translate(-58.43 -20.99)"/><path class="a" d="M419.88,838a56.39,56.39,0,0,1-22-4.56,2.84,2.84,0,0,1,2.41-5.14c.2.1,20.84,9.49,39-1,20.83-12,41.82-1.55,42.7-1.1a2.84,2.84,0,0,1-2.57,5.06c-.28-.15-19.23-9.43-37.31,1A44.22,44.22,0,0,1,419.88,838Z" transform="translate(-58.43 -20.99)"/><path class="a" d="M404.44,777.55a2.84,2.84,0,0,1-2.84-2.83v-73.5a2.84,2.84,0,1,1,5.67,0v73.5A2.83,2.83,0,0,1,404.44,777.55Z" transform="translate(-58.43 -20.99)"/><path class="a" d="M392.1,671.38a2.83,2.83,0,0,1-2.83-2.83v-30a2.84,2.84,0,0,1,5.67,0v30A2.83,2.83,0,0,1,392.1,671.38Z" transform="translate(-58.43 -20.99)"/><path class="a" d="M404.44,671.38a2.83,2.83,0,0,1-2.84-2.83v-30a2.84,2.84,0,0,1,5.67,0v30A2.83,2.83,0,0,1,404.44,671.38Z" transform="translate(-58.43 -20.99)"/><path class="a" d="M392.1,733.05a2.83,2.83,0,0,1-2.83-2.83v-29a2.84,2.84,0,1,1,5.67,0v29A2.84,2.84,0,0,1,392.1,733.05Z" transform="translate(-58.43 -20.99)"/><path class="a" d="M358.6,660.47h-.07c-7.26-.13-18-5.07-18-18.13V625.22a4.25,4.25,0,0,1,4.25-4.26h94.12a4.26,4.26,0,0,1,0,8.51H349v12.87c0,8.87,8.1,9.57,9.73,9.62a4.26,4.26,0,0,1-.11,8.51Z" transform="translate(-58.43 -20.99)"/><path class="a" d="M435.64,662.47a4.26,4.26,0,0,1-.1-8.51c1.64-.05,9.73-.76,9.73-9.62V605.8H355.39a4.25,4.25,0,0,1-4.25-4.25V579.88a4.25,4.25,0,0,1,4.25-4.25h75.13V561.47H369.77a4.26,4.26,0,0,1,0-8.51h65a4.25,4.25,0,0,1,4.25,4.26v22.66a4.25,4.25,0,0,1-4.25,4.25H359.65V597.3h89.87a4.25,4.25,0,0,1,4.25,4.25v42.79c0,13.06-10.79,18-18,18.13Z" transform="translate(-58.43 -20.99)"/><path class="a" d="M508.1,669.05h-53a2.84,2.84,0,0,1,0-5.67h53c49.47,0,51.12-35.72,51.17-37.24a2.83,2.83,0,0,1,2.83-2.76h.08a2.83,2.83,0,0,1,2.76,2.9C564.92,626.71,563.23,669.05,508.1,669.05Z" transform="translate(-58.43 -20.99)"/><path class="a" d="M143.85,668.55a24.09,24.09,0,1,1,24.09-24.08A24.1,24.1,0,0,1,143.85,668.55Zm0-42.5a18.42,18.42,0,1,0,18.42,18.42A18.43,18.43,0,0,0,143.85,626.05Z" transform="translate(-58.43 -20.99)"/><path class="a" d="M190.85,642.05A14.09,14.09,0,1,1,204.94,628,14.1,14.1,0,0,1,190.85,642.05Zm0-22.5a8.42,8.42,0,1,0,8.42,8.42A8.42,8.42,0,0,0,190.85,619.55Z" transform="translate(-58.43 -20.99)"/><path class="a" d="M156.85,441.3a14.09,14.09,0,1,1,14.09-14.08A14.1,14.1,0,0,1,156.85,441.3Zm0-22.5a8.42,8.42,0,1,0,8.42,8.42A8.42,8.42,0,0,0,156.85,418.8Z" transform="translate(-58.43 -20.99)"/><path class="a" d="M597.85,379.3a14.09,14.09,0,1,1,14.09-14.08A14.09,14.09,0,0,1,597.85,379.3Zm0-22.5a8.42,8.42,0,1,0,8.42,8.42A8.42,8.42,0,0,0,597.85,356.8Z" transform="translate(-58.43 -20.99)"/><path class="a" d="M96.1,747.38a2.83,2.83,0,0,1-2.83-2.83c0-14.43,4.12-25.39,12.24-32.6,12.23-10.84,28.89-9,29.6-8.88a2.84,2.84,0,0,1-.68,5.63c-.25,0-15-1.59-25.2,7.53-6.83,6.08-10.29,15.61-10.29,28.32A2.83,2.83,0,0,1,96.1,747.38Z" transform="translate(-58.43 -20.99)"/><path class="a" d="M766.43,554.72a2.84,2.84,0,0,1-2.8-2.43h0c-.1-.66-2.55-16.24-15.86-16.24H688.44a2.84,2.84,0,1,1,0-5.67h59.33c14.6,0,20.43,13.8,21.47,21.1a2.84,2.84,0,0,1-2.81,3.24Z" transform="translate(-58.43 -20.99)"/><path class="a" d="M417.38,558.38a2.83,2.83,0,0,1-2.83-2.83V499.22a2.83,2.83,0,1,1,5.66,0v56.33A2.83,2.83,0,0,1,417.38,558.38Z" transform="translate(-58.43 -20.99)"/><path class="a" d="M384.71,560.05a2.83,2.83,0,0,1-2.83-2.83v-58a2.84,2.84,0,1,1,5.67,0v58A2.84,2.84,0,0,1,384.71,560.05Z" transform="translate(-58.43 -20.99)"/><path class="a" d="M434.21,502.05H367.88a2.84,2.84,0,0,1,0-5.67h66.33a2.84,2.84,0,1,1,0,5.67Z" transform="translate(-58.43 -20.99)"/><path class="a" d="M452.71,488.72H349.38a2.84,2.84,0,0,1,0-5.67H452.71a2.84,2.84,0,1,1,0,5.67Z" transform="translate(-58.43 -20.99)"/><path class="a" d="M357.77,488.05a2.82,2.82,0,0,1-2.83-2.75l-.67-23a2.86,2.86,0,0,1,.8-2.06,2.83,2.83,0,0,1,2-.86h86.34a2.84,2.84,0,0,1,2.83,2.84v23a2.84,2.84,0,0,1-5.67,0V465.05H360l.58,20.08a2.83,2.83,0,0,1-2.75,2.92Z" transform="translate(-58.43 -20.99)"/><path class="a" d="M368.1,464.42a3,3,0,0,1-1.53-.42,3,3,0,0,1-1-4.09c.18-.3,15.08-26,15.08-70.28,0-44.59-15.07-77.41-15.22-77.74a3,3,0,0,1,5.4-2.52c.65,1.38,15.78,34.27,15.78,80.26S371.31,461.88,370.66,463A3,3,0,0,1,368.1,464.42Z" transform="translate(-58.43 -20.99)"/><path class="a" d="M433.1,464.7a3,3,0,0,1-2.68-1.69c-16.85-35.09-20.21-79.32-9.47-124.53a3,3,0,1,1,5.8,1.37c-10.42,43.9-7.21,86.72,9,120.58a3,3,0,0,1-2.69,4.27Z" transform="translate(-58.43 -20.99)"/><path class="a" d="M388.68,435a2.94,2.94,0,0,1-.71-.09,3,3,0,0,1-2.19-3.6c5.33-21.72,6.3-45.29,2.86-70.06-.9-6.51-2.12-13.11-3.63-19.61a3,3,0,1,1,5.8-1.35c1.55,6.68,2.81,13.45,3.74,20.14,3.53,25.52,2.53,49.85-3,72.3A3,3,0,0,1,388.68,435Z" transform="translate(-58.43 -20.99)"/><path class="b" d="M421.36,353.92" transform="translate(-58.43 -20.99)"/><path class="a" d="M409.6,313.05H337.84c-8.33-.78-24.07-6.86-24.07-24.32a2.84,2.84,0,0,1,2.83-2.84h32.5a2.84,2.84,0,1,1,0,5.67H319.62c1.86,13.65,17,15.65,18.62,15.83H409.6a2.84,2.84,0,1,1,0,5.67Z" transform="translate(-58.43 -20.99)"/><path class="a" d="M452.6,313.05h-9.75a2.84,2.84,0,0,1,0-5.67h9.6c1.62-.18,16.77-2.24,18.63-15.83H379.6a2.84,2.84,0,0,1,0-5.67h94.5a2.83,2.83,0,0,1,2.84,2.84c0,17.46-15.75,23.54-24.08,24.32Z" transform="translate(-58.43 -20.99)"/><path class="a" d="M247.63,1026.7c-3.07-2.66-6.45-4.1-13.31-5.12l-8-1.23c-3.79-.61-7.57-2.05-9.83-4s-3.27-4.81-3.27-8.39c0-8.09,5.63-13.51,15.35-13.51,7.68,0,12.49,2.14,17,6.24l5-5c-6.24-5.63-12.38-8-21.7-8-14.43,0-23.34,8.19-23.34,20.57,0,5.84,1.84,10.34,5.53,13.62,3.17,2.76,7.68,4.6,13.41,5.53l8.49,1.32c5.33.82,7.17,1.44,9.52,3.49s3.49,5.32,3.49,9.1c0,8.5-6.56,13.52-17.2,13.52-8.19,0-13.82-1.95-19.86-8l-5.32,5.32c6.86,6.86,14,9.63,25,9.63,15.15,0,25.18-7.89,25.18-20.68C253.77,1035.09,251.62,1030.08,247.63,1026.7Z" transform="translate(-58.43 -20.99)"/><path class="a" d="M297.78,988.31,271,1061.19h8.29l5.83-16.48h31.84l5.83,16.48H331l-26.71-72.88ZM287.44,1038l13.71-38.49L314.67,1038Z" transform="translate(-58.43 -20.99)"/><polygon class="a" points="302.38 981.75 341.07 1040.2 348.44 1040.2 348.44 967.32 340.66 967.32 340.66 1025.56 301.97 967.32 294.6 967.32 294.6 1040.2 302.38 1040.2 302.38 981.75"/><polygon class="a" points="422.23 967.32 372.28 967.32 372.28 974.28 393.36 974.28 393.36 1040.2 401.14 1040.2 401.14 974.28 422.23 974.28 422.23 967.32"/><path class="a" d="M549.13,1061.19l-26.72-72.88h-6.55L489,1061.19h8.29l5.84-16.48H535l5.84,16.48ZM505.52,1038l13.72-38.49L532.75,1038Z" transform="translate(-58.43 -20.99)"/><rect class="a" x="512.69" y="967.32" width="7.78" height="72.88"/><path class="a" d="M240,1132.06c-3.08-2.66-6.45-4.09-13.31-5.12l-8-1.22c-3.79-.62-7.58-2-9.83-4s-3.28-4.81-3.28-8.39c0-8.09,5.63-13.51,15.36-13.51,7.67,0,12.48,2.15,17,6.24l5-5c-6.24-5.63-12.38-8-21.7-8-14.43,0-23.33,8.19-23.33,20.58,0,5.83,1.84,10.34,5.52,13.61,3.18,2.76,7.68,4.6,13.41,5.53l8.5,1.33c5.32.82,7.16,1.43,9.52,3.48s3.48,5.32,3.48,9.11c0,8.49-6.55,13.51-17.2,13.51-8.19,0-13.82-2-19.86-8l-5.32,5.33c6.86,6.86,14,9.62,25,9.62,15.14,0,25.18-7.88,25.18-20.68C246.15,1140.45,244,1135.44,240,1132.06Z" transform="translate(-58.43 -20.99)"/><polygon class="a" points="256.59 1105.34 221.99 1105.34 221.99 1072.68 214.21 1072.68 214.21 1145.56 221.99 1145.56 221.99 1112.3 256.59 1112.3 256.59 1145.56 264.37 1145.56 264.37 1072.68 256.59 1072.68 256.59 1105.34"/><rect class="a" x="295.67" y="1072.68" width="7.78" height="72.88"/><path class="a" d="M431,1132.06c-3.07-2.66-6.45-4.09-13.31-5.12l-8-1.22c-3.79-.62-7.57-2-9.83-4s-3.27-4.81-3.27-8.39c0-8.09,5.63-13.51,15.35-13.51,7.68,0,12.49,2.15,17,6.24l5-5c-6.25-5.63-12.38-8-21.7-8-14.43,0-23.34,8.19-23.34,20.58,0,5.83,1.84,10.34,5.53,13.61,3.17,2.76,7.68,4.6,13.41,5.53l8.49,1.33c5.33.82,7.17,1.43,9.52,3.48s3.48,5.32,3.48,9.11c0,8.49-6.55,13.51-17.19,13.51-8.19,0-13.82-2-19.86-8l-5.32,5.33c6.85,6.86,14,9.62,25,9.62,15.15,0,25.18-7.88,25.18-20.68C437.11,1140.45,435,1135.44,431,1132.06Z" transform="translate(-58.43 -20.99)"/><polygon class="a" points="447.56 1105.34 412.96 1105.34 412.96 1072.68 405.18 1072.68 405.18 1145.56 412.96 1145.56 412.96 1112.3 447.56 1112.3 447.56 1145.56 455.33 1145.56 455.33 1072.68 447.56 1072.68 447.56 1105.34"/><path class="a" d="M562.58,1093.68l-26.82,72.87h8.29l5.84-16.47h31.83l5.84,16.47h8.29l-26.72-72.87Zm-10.34,49.64L566,1104.83l13.51,38.49Z" transform="translate(-58.43 -20.99)"/><path class="a" d="M657.58,938.13a2.78,2.78,0,0,0-2.78,2.78,11.65,11.65,0,0,1-11.64,11.64H589.32a17.23,17.23,0,0,0-17.21,17.21v2.56a2.79,2.79,0,1,0,5.57,0v-2.56a11.65,11.65,0,0,1,11.64-11.64h53.84a17.23,17.23,0,0,0,17.21-17.21A2.78,2.78,0,0,0,657.58,938.13Z" transform="translate(-58.43 -20.99)"/><path class="a" d="M417.35,822.8a7.59,7.59,0,1,1,7.59-7.58A7.59,7.59,0,0,1,417.35,822.8Zm0-9.5a1.92,1.92,0,1,0,1.92,1.92A1.92,1.92,0,0,0,417.35,813.3Z" transform="translate(-58.43 -20.99)"/><path class="a" d="M434.69,800.47a7.59,7.59,0,1,1,7.58-7.59A7.59,7.59,0,0,1,434.69,800.47Zm0-9.5a1.92,1.92,0,1,0,1.91,1.91A1.92,1.92,0,0,0,434.69,791Z" transform="translate(-58.43 -20.99)"/><path class="a" d="M480.73,842.72a2.84,2.84,0,0,1-2.84-2.84V778.47c0-.11-.42-15.25-11.4-23.76a2.83,2.83,0,0,1,3.47-4.48c13.18,10.21,13.59,27.46,13.6,28.19v61.46A2.84,2.84,0,0,1,480.73,842.72Z" transform="translate(-58.43 -20.99)"/><path class="a" d="M449.6,606.55a2.84,2.84,0,0,1-2-4.84l29.25-29.25a2.84,2.84,0,0,1,4,4l-29.25,29.25A2.86,2.86,0,0,1,449.6,606.55Z" transform="translate(-58.43 -20.99)"/><path class="a" d="M487.6,584.05a2.83,2.83,0,0,1-2-.83l-28.75-28.75a2.83,2.83,0,0,1,0-4l10.75-10.75a2.84,2.84,0,0,1,4,4l-8.75,8.75,24.74,24.74,7.58-7.58-17.92-17.91a2.84,2.84,0,0,1,4-4l19.92,19.92a2.84,2.84,0,0,1,0,4l-11.58,11.58A2.86,2.86,0,0,1,487.6,584.05Z" transform="translate(-58.43 -20.99)"/><path class="a" d="M496.1,550.3a7.09,7.09,0,0,1-5-12.1l41.7-41.69c2.05-2.15,40.88-44,.05-84.78-45.56-45.56-201-145.55-202.57-146.55l-.11-.08a175.9,175.9,0,0,1-44.24-45.75c-25.08-38.33-26.82-79.33-5-118.58A158.83,158.83,0,0,1,335,43.24a143.8,143.8,0,0,1,71.19-22.16C456,19.34,501.89,45,532,91.35c35.31,54.32,26.24,103,12.42,134.23C530.13,258,508.3,278.26,506,280.36l-14,14a7.09,7.09,0,0,1-10-10l14.17-14.16.3-.29A161.78,161.78,0,0,0,531.7,219.4c17.81-40.66,13.93-81.14-11.54-120.32-14.32-22-32-38.75-52.53-49.7a120.82,120.82,0,0,0-60.92-14.14c-46,1.6-89.48,29.34-113.41,72.42-19.36,34.84-17.85,69.81,4.48,103.93A163.84,163.84,0,0,0,338,253.3c7.43,4.77,158.4,101.94,204.86,148.4,26.63,26.63,25.15,53.89,19.21,72.07a92.34,92.34,0,0,1-19.13,32.63l-.08.08-41.75,41.75A7.05,7.05,0,0,1,496.1,550.3Z" transform="translate(-58.43 -20.99)"/><path class="a" d="M426.6,291.05a2.84,2.84,0,0,1-2-4.84l6.49-6.49-9-9a2.84,2.84,0,0,1,2.14-4.84,8,8,0,0,0,5.2-1.85,7.11,7.11,0,0,0,1.83-5.31V234.3H371.19v23.64c.23,1.12,1.61,6.44,6.16,6.44a2.84,2.84,0,1,1,0,5.67c-7.83,0-11.14-7.44-11.79-11.37a2.38,2.38,0,0,1,0-.46V231.47a2.84,2.84,0,0,1,2.83-2.84H434.1a2.84,2.84,0,0,1,2.84,2.84v27.25c0,4-1.22,7.17-3.62,9.45a11.72,11.72,0,0,1-3.49,2.27l7.28,7.27a2.85,2.85,0,0,1,0,4l-8.5,8.5A2.86,2.86,0,0,1,426.6,291.05Z" transform="translate(-58.43 -20.99)"/><path class="a" d="M427.44,233.72a2.84,2.84,0,0,1-2.84-2.84V200.76c-21-13-39.65-3-44.33,0v29.83a2.84,2.84,0,0,1-5.67,0V199.22a2.84,2.84,0,0,1,1.12-2.26c.25-.19,25.26-18.67,53.28-.11a2.86,2.86,0,0,1,1.27,2.37v31.66A2.84,2.84,0,0,1,427.44,233.72Z" transform="translate(-58.43 -20.99)"/><path class="a" d="M400.44,146.78a2.84,2.84,0,0,1-2.84-2.84v-5.72a2.84,2.84,0,1,1,5.67,0v5.72A2.84,2.84,0,0,1,400.44,146.78Z" transform="translate(-58.43 -20.99)"/><path class="a" d="M400.44,174.72a2.84,2.84,0,0,1-2.84-2.84V152.79a2.84,2.84,0,0,1,5.67,0v19.09A2.84,2.84,0,0,1,400.44,174.72Z" transform="translate(-58.43 -20.99)"/><path class="a" d="M475.27,210.38h-7.13a2.84,2.84,0,0,1,0-5.67h7.13a2.84,2.84,0,0,1,0,5.67Z" transform="translate(-58.43 -20.99)"/><path class="a" d="M459.31,210.38H441.6a2.84,2.84,0,0,1,0-5.67h17.71a2.84,2.84,0,0,1,0,5.67Z" transform="translate(-58.43 -20.99)"/><path class="a" d="M454.51,164.64a2.84,2.84,0,0,1-2-4.84l3.49-3.49a2.84,2.84,0,0,1,4,4l-3.49,3.49A2.86,2.86,0,0,1,454.51,164.64Z" transform="translate(-58.43 -20.99)"/><path class="a" d="M434.2,185a2.81,2.81,0,0,1-2-.83,2.85,2.85,0,0,1,0-4l13-13a2.83,2.83,0,0,1,4,4l-13,13A2.79,2.79,0,0,1,434.2,185Z" transform="translate(-58.43 -20.99)"/><path class="a" d="M347,164.29a2.83,2.83,0,0,1-2-.83l-3.14-3.14a2.84,2.84,0,0,1,4-4l3.14,3.14a2.84,2.84,0,0,1-2,4.84Z" transform="translate(-58.43 -20.99)"/><path class="a" d="M367.67,185a2.79,2.79,0,0,1-2-.83l-13.75-13.74a2.84,2.84,0,0,1,4-4l13.75,13.74a2.85,2.85,0,0,1,0,4A2.81,2.81,0,0,1,367.67,185Z" transform="translate(-58.43 -20.99)"/><path class="a" d="M362.6,210.38H343.17a2.84,2.84,0,1,1,0-5.67H362.6a2.84,2.84,0,1,1,0,5.67Z" transform="translate(-58.43 -20.99)"/><path class="a" d="M334.13,210.38h-5.19a2.84,2.84,0,1,1,0-5.67h5.19a2.84,2.84,0,1,1,0,5.67Z" transform="translate(-58.43 -20.99)"/><path class="a" d="M415.55,244.05H388.21a2.84,2.84,0,0,1,0-5.67h27.34a2.84,2.84,0,0,1,0,5.67Z" transform="translate(-58.43 -20.99)"/><path class="a" d="M345.81,435.34a7.09,7.09,0,0,1-4.87-12.24c9.41-8.89,13.51-12.81,22.54-21.84a7.09,7.09,0,0,1,10,10c-9.16,9.16-13.31,13.13-22.83,22.12A7,7,0,0,1,345.81,435.34Z" transform="translate(-58.43 -20.99)"/><path class="a" d="M326.23,473.85a2.83,2.83,0,0,1-2-.83l-22.84-22.84a2.85,2.85,0,0,1,0-4l12-12a2.84,2.84,0,0,1,4,4l-10,10L326.23,467l10.16-10.15-14.66-14.67a2.84,2.84,0,0,1,4-4l16.66,16.67a2.84,2.84,0,0,1,0,4L328.24,473A2.86,2.86,0,0,1,326.23,473.85Z" transform="translate(-58.43 -20.99)"/><path class="a" d="M292.35,468.55a2.84,2.84,0,0,1-2-4.84l13.87-13.87a2.84,2.84,0,0,1,4,4l-13.87,13.87A2.86,2.86,0,0,1,292.35,468.55Z" transform="translate(-58.43 -20.99)"/><path class="a" d="M271.6,519.55a2.83,2.83,0,0,1-2-.83L254.47,503.6a2.85,2.85,0,0,1,0-4l21.88-21.88a2.84,2.84,0,0,1,4,4l-19.87,19.87,11.11,11.12,21.63-21.64,2.47-8.94a2.85,2.85,0,0,1,1.91-2l9.4-2.87,12.09-12.09a2.84,2.84,0,0,1,4,4L310.52,481.8a2.89,2.89,0,0,1-1.17.71l-8.6,2.63-2.25,8.16a2.73,2.73,0,0,1-.73,1.25l-24.16,24.17A2.86,2.86,0,0,1,271.6,519.55Z" transform="translate(-58.43 -20.99)"/><path class="a" d="M347.94,452.88a2.8,2.8,0,0,1-2-.83L323.1,429.22a2.84,2.84,0,0,1,4-4L349.94,448a2.83,2.83,0,0,1,0,4A2.79,2.79,0,0,1,347.94,452.88Z" transform="translate(-58.43 -20.99)"/><path class="a" d="M355.27,447.22a2.86,2.86,0,0,1-2-.83l-22.83-22.84a2.84,2.84,0,0,1,4-4l22.83,22.84a2.84,2.84,0,0,1-2,4.84Z" transform="translate(-58.43 -20.99)"/><path class="a" d="M282.27,508.55a2.81,2.81,0,0,1-2-.81L272.41,500a2.84,2.84,0,1,1,4-4l7.87,7.71a2.83,2.83,0,0,1,0,4A2.8,2.8,0,0,1,282.27,508.55Z" transform="translate(-58.43 -20.99)"/><path class="a" d="M288.1,502.38a2.86,2.86,0,0,1-2-.8l-7.88-7.71a2.84,2.84,0,0,1,4-4.06l7.88,7.71a2.84,2.84,0,0,1-2,4.86Z" transform="translate(-58.43 -20.99)"/><path class="a" d="M151.1,709.28c4.56,0,4.57-7.09,0-7.09s-4.57,7.09,0,7.09Z" transform="translate(-58.43 -20.99)"/><path class="a" d="M248.1,842.8c4.56,0,4.57-7.09,0-7.09s-4.57,7.09,0,7.09Z" transform="translate(-58.43 -20.99)"/><path class="a" d="M400.27,857.26c4.56,0,4.57-7.08,0-7.08s-4.57,7.08,0,7.08Z" transform="translate(-58.43 -20.99)"/><path class="a" d="M662.44,929.76c4.56,0,4.56-7.09,0-7.09s-4.57,7.09,0,7.09Z" transform="translate(-58.43 -20.99)"/><path class="a" d="M368.69,942.52c4.56,0,4.56-7.09,0-7.09s-4.57,7.09,0,7.09Z" transform="translate(-58.43 -20.99)"/><path class="a" d="M562.1,616.43c4.56,0,4.57-7.09,0-7.09s-4.57,7.09,0,7.09Z" transform="translate(-58.43 -20.99)"/><path class="a" d="M673.1,536.76c4.56,0,4.57-7.09,0-7.09s-4.57,7.09,0,7.09Z" transform="translate(-58.43 -20.99)"/><path class="a" d="M238.44,537.09c4.56,0,4.56-7.08,0-7.08s-4.57,7.08,0,7.08Z" transform="translate(-58.43 -20.99)"/><path class="a" d="M252.94,319.59c4.56,0,4.56-7.08,0-7.08s-4.57,7.08,0,7.08Z" transform="translate(-58.43 -20.99)"/><path class="a" d="M289.1,479.76c4.56,0,4.57-7.09,0-7.09s-4.57,7.09,0,7.09Z" transform="translate(-58.43 -20.99)"/><path class="a" d="M393.55,223.88a2.81,2.81,0,0,1-2-.83,2.85,2.85,0,0,1,0-4l16.67-16.66a2.84,2.84,0,1,1,4,4l-16.67,16.66A2.79,2.79,0,0,1,393.55,223.88Z" transform="translate(-58.43 -20.99)"/><path class="a" d="M410.21,223.88a2.79,2.79,0,0,1-2-.83l-16.67-16.66a2.84,2.84,0,0,1,4-4L412.22,219a2.85,2.85,0,0,1,0,4A2.81,2.81,0,0,1,410.21,223.88Z" transform="translate(-58.43 -20.99)"/><path class="a" d="M439.6,924.55H341.1a2.84,2.84,0,0,1,0-5.67h98.5a2.84,2.84,0,1,1,0,5.67Z" transform="translate(-58.43 -20.99)"/><path class="a" d="M126.1,514.05a2.83,2.83,0,0,1-2.82-2.54c-.1-1-2.44-25.42,13.52-43.14,10-11.11,24.88-17,44.2-17.46a78.35,78.35,0,0,1,8-26.51c7-13.46,21.52-29.52,50.57-29.52h75.5a2.84,2.84,0,1,1,0,5.67H239.6c-21,0-36.37,8.91-45.55,26.48a72.24,72.24,0,0,0-7.62,26.81,2.82,2.82,0,0,1-2.83,2.71c-18.9,0-33.21,5.24-42.55,15.58-14.28,15.81-12.15,38.57-12.13,38.8a2.83,2.83,0,0,1-2.53,3.1Z" transform="translate(-58.43 -20.99)"/><path class="a" d="M197.1,515.05H82.1a2.84,2.84,0,0,1,0-5.67h115a2.84,2.84,0,1,1,0,5.67Z" transform="translate(-58.43 -20.99)"/><path class="a" d="M495.1,400.05h-59a2.84,2.84,0,0,1,0-5.67h59a2.84,2.84,0,1,1,0,5.67Z" transform="translate(-58.43 -20.99)"/><path class="a" d="M631.6,419.55a2.83,2.83,0,0,1-2.83-2.83c0-15-17.75-19.21-19.94-19.67H552.1a2.84,2.84,0,0,1,0-5.67h57a4.21,4.21,0,0,1,.5,0c8.59,1.53,24.84,8.78,24.84,25.3A2.84,2.84,0,0,1,631.6,419.55Z" transform="translate(-58.43 -20.99)"/><path class="a" d="M710.6,500.55a2.83,2.83,0,0,1-2.83-2.83c0-24-6.93-42.89-20.58-56.06-22.36-21.56-55.65-20.62-56-20.61H598.1a2.84,2.84,0,0,1,0-5.67h32.95c2.12-.07,36.16-.83,60,22.17,14.83,14.27,22.35,34.52,22.35,60.17A2.84,2.84,0,0,1,710.6,500.55Z" transform="translate(-58.43 -20.99)"/><path class="a" d="M276.14,367.67h-132a26.84,26.84,0,0,1,0-53.67h29.21a29.88,29.88,0,0,1,29.75-27.62h46a29.87,29.87,0,0,1,29.77,27.76,26.83,26.83,0,0,1-2.73,53.53Zm-132-48a21.17,21.17,0,0,0,0,42.33h132a21.17,21.17,0,0,0,0-42.33,2.91,2.91,0,0,1-2.05-.85,2.87,2.87,0,0,1-.84-2.05l0-.55a24.19,24.19,0,0,0-24.17-24.17h-46a24.19,24.19,0,0,0-24.16,24.17v.55a2.81,2.81,0,0,1-.8,2,2.85,2.85,0,0,1-2,.86Z" transform="translate(-58.43 -20.99)"/><path class="a" d="M233.1,319.05h-57a2.84,2.84,0,0,1,0-5.67h57a2.84,2.84,0,1,1,0,5.67Z" transform="translate(-58.43 -20.99)"/><path class="a" d="M699.85,776.05H657.6a2.84,2.84,0,0,1,0-5.67h42.25a2.84,2.84,0,1,1,0,5.67Z" transform="translate(-58.43 -20.99)"/></svg>