<svg id="Capa_1" enable-background="new 0 0 512 512" height="512" viewBox="0 0 512 512" width="512" xmlns="http://www.w3.org/2000/svg"><g><g><path d="m471.947 176.029v-8.729c0-45.104-36.657-81.8-81.715-81.8h-268.464c-45.074 0-81.744 36.695-81.744 81.8v8.73c-22.233 4.924-40.024 25.696-40.024 48.966 0 20.435 10.777 37.218 28.601 45.339v146.165c0 5.523 4.477 10 10 10h51.476c5.523 0 10-4.477 10-10v-30.866h111.009c5.523 0 10-4.477 10-10s-4.477-10-10-10h-111.009v-27.224h311.846v27.224h-111.037c-5.523 0-10 4.477-10 10s4.477 10 10 10h111.037v30.866c0 5.523 4.477 10 10 10h51.476c5.523 0 10-4.477 10-10v-146.168c17.824-8.127 28.601-24.91 28.601-45.336 0-23.272-17.804-44.045-40.053-48.967zm-350.179-70.529h268.464c34.03 0 61.715 27.723 61.715 61.8v8.631c-22.808 4.65-40.024 24.882-40.024 49.065v50.245c-.805-.494-1.629-.976-2.479-1.443-11.495-6.303-26.652-9.901-42.679-10.131-.097-.001-.192-.001-.288 0-16.04.23-31.206 3.828-42.704 10.131-4.944 2.71-9.11 5.897-12.481 9.454-3.368-3.557-7.531-6.743-12.471-9.453-11.492-6.303-26.653-9.901-42.691-10.132-.096-.001-.191-.001-.288 0-16.027.23-31.185 3.829-42.679 10.131-4.942 2.71-9.107 5.896-12.477 9.453-3.368-3.557-7.531-6.743-12.471-9.452-11.492-6.303-26.653-9.901-42.692-10.132-.096-.001-.191-.001-.287 0-16.038.23-31.2 3.829-42.691 10.132-.846.464-1.666.945-2.468 1.436v-50.24c0-24.185-17.229-44.418-40.053-49.066v-8.63c0-34.076 27.699-61.799 61.744-61.799zm-21.691 201.995c0-15.021 23.314-23.476 45.303-23.828 21.989.352 45.303 8.807 45.303 23.828v10.916h-90.606zm201.212 10.915h-90.605v-10.916c0-14.476 23.008-23.47 45.303-23.828 21.989.352 45.302 8.807 45.302 23.828zm110.634 0h-90.634v-10.916c0-14.476 23.022-23.47 45.332-23.828 22.295.358 45.303 9.352 45.303 23.828v10.916zm-331.846 88.09h-31.476v-143.079c0-4.422-2.904-8.319-7.142-9.583-13.637-4.067-21.459-14.58-21.459-28.842 0-14.195 12.84-30.072 30.024-30.072 16.571 0 30.053 13.49 30.053 30.072zm390.459-152.66c-4.235 1.266-7.137 5.162-7.137 9.582v143.078h-31.476v-181.504c0-16.582 13.469-30.072 30.024-30.072 17.2 0 30.053 15.876 30.053 30.072 0 14.254-7.823 24.768-21.464 28.844z"/><path d="m154.876 215.13c5.523 0 10-4.477 10-10v-.057c0-5.523-4.477-9.972-10-9.972s-10 4.505-10 10.028 4.477 10.001 10 10.001z"/><path d="m205.445 215.13c5.523 0 10-4.477 10-10v-.057c0-5.523-4.477-9.972-10-9.972s-10 4.505-10 10.028 4.477 10.001 10 10.001z"/><path d="m255.986 215.13c5.523 0 10-4.477 10-10v-.057c0-5.523-4.477-9.972-10-9.972s-10 4.505-10 10.028 4.477 10.001 10 10.001z"/><path d="m306.555 215.13c5.523 0 10-4.477 10-10v-.057c0-5.523-4.477-9.972-10-9.972s-10 4.505-10 10.028 4.477 10.001 10 10.001z"/><path d="m357.096 215.13c5.523 0 10-4.477 10-10v-.057c0-5.523-4.477-9.972-10-9.972s-10 4.505-10 10.028 4.477 10.001 10 10.001z"/><path d="m129.591 159.023c5.523 0 10-4.477 10-10v-.085c0-5.523-4.477-9.958-10-9.958s-10 4.52-10 10.042 4.477 10.001 10 10.001z"/><path d="m180.161 159.023c5.523 0 10-4.477 10-10v-.085c0-5.523-4.477-9.958-10-9.958s-10 4.52-10 10.042 4.477 10.001 10 10.001z"/><path d="m230.701 159.023c5.523 0 10-4.477 10-10v-.085c0-5.523-4.477-9.958-10-9.958s-10 4.52-10 10.042 4.477 10.001 10 10.001z"/><path d="m281.271 159.023c5.523 0 10-4.477 10-10v-.085c0-5.523-4.477-9.958-10-9.958s-10 4.52-10 10.042 4.477 10.001 10 10.001z"/><path d="m331.839 159.023c5.523 0 10-4.477 10-10v-.085c0-5.523-4.477-9.958-10-9.958s-10 4.52-10 10.042 4.477 10.001 10 10.001z"/><path d="m382.38 159.023c5.523 0 10-4.477 10-10v-.085c0-5.523-4.477-9.958-10-9.958s-10 4.52-10 10.042 4.477 10.001 10 10.001z"/><path d="m255.986 365.634c-5.523 0-10 4.477-10 10s4.477 10 10 10h.057c5.523 0 9.972-4.477 9.972-10s-4.506-10-10.029-10z"/></g></g></svg>