<?xml version="1.0" encoding="utf-8"?>
<!-- Generator: Adobe Illustrator 23.0.0, SVG Export Plug-In . SVG Version: 6.00 Build 0)  -->
<svg version="1.1" id="Слой_1" xmlns="http://www.w3.org/2000/svg" xmlns:xlink="http://www.w3.org/1999/xlink" x="0px" y="0px"
	 viewBox="0 0 512 512" style="enable-background:new 0 0 512 512;" xml:space="preserve">
<style type="text/css">
	.st0{fill:#039BE5;}
	.st1{fill:#FFFFFF;}
</style>
<g>
	<path class="st0" d="M256,490.5c-62.6,0-121.5-24.4-165.8-68.7C45.9,377.5,21.5,318.6,21.5,256c0-62.6,24.4-121.5,68.7-165.8
		C134.5,45.9,193.4,21.5,256,21.5c62.6,0,121.5,24.4,165.8,68.7c44.3,44.3,68.7,103.2,68.7,165.8c0,62.6-24.4,121.5-68.7,165.8
		S318.6,490.5,256,490.5z"/>
	<path class="st1" d="M256,43c56.9,0,110.4,22.2,150.6,62.4C446.8,145.6,469,199.1,469,256s-22.2,110.4-62.4,150.6
		C366.4,446.8,312.9,469,256,469s-110.4-22.2-150.6-62.4C65.2,366.4,43,312.9,43,256s22.2-110.4,62.4-150.6
		C145.6,65.2,199.1,43,256,43 M256,0C114.6,0,0,114.6,0,256s114.6,256,256,256s256-114.6,256-256S397.4,0,256,0L256,0z"/>
</g>
<path class="st1" d="M117.1,250.5L364,155.3c11.5-4.1,21.5,2.8,17.7,20.1l0,0l-42,198c-3.1,14-11.5,17.5-23.1,10.8l-64-47.2
	l-30.9,29.7c-3.4,3.4-6.3,6.3-12.9,6.3l4.5-65.1L332,200.8c5.2-4.5-1.2-7.1-8-2.6l-146.6,92.3l-63.2-19.7
	C100.5,266.4,100.2,257.1,117.1,250.5L117.1,250.5z"/>
</svg>
