<svg height="512" viewBox="0 0 64 64" width="512" xmlns="http://www.w3.org/2000/svg"><path d="M25 15a1 1 0 001 1h12a1 1 0 001-1c0-2.8-1.657-5.216-4.04-6.334A3.97 3.97 0 0036 6c0-2.206-1.794-4-4-4s-4 1.794-4 4c0 1.028.4 1.957 1.04 2.666C26.657 9.784 25 12.199 25 15zm5-9c0-1.103.897-2 2-2s2 .897 2 2-.897 2-2 2-2-.897-2-2zm2 4a5.009 5.009 0 014.9 4h-9.8c.465-2.28 2.485-4 4.9-4zm9 12a1 1 0 001 1h12a1 1 0 001-1c0-2.8-1.657-5.216-4.04-6.334A3.97 3.97 0 0052 13c0-2.206-1.794-4-4-4s-4 1.794-4 4c0 1.028.4 1.957 1.04 2.666C42.657 16.784 41 19.199 41 22zm5-9c0-1.103.897-2 2-2s2 .897 2 2-.897 2-2 2-2-.897-2-2zm2 4a5.009 5.009 0 014.9 4h-9.8c.465-2.28 2.485-4 4.9-4zm0 24c-2.206 0-4 1.794-4 4 0 1.028.4 1.957 1.04 2.666C42.657 48.784 41 51.199 41 54a1 1 0 001 1h12a1 1 0 001-1c0-2.8-1.657-5.216-4.04-6.334A3.97 3.97 0 0052 45c0-2.206-1.794-4-4-4zm-2 4c0-1.103.897-2 2-2s2 .897 2 2-.897 2-2 2-2-.897-2-2zm6.9 8h-9.8c.465-2.28 2.485-4 4.9-4s4.435 1.72 4.9 4zM25 61a1 1 0 001 1h12a1 1 0 001-1c0-2.8-1.657-5.216-4.04-6.334A3.97 3.97 0 0036 52c0-2.206-1.794-4-4-4s-4 1.794-4 4c0 1.028.4 1.957 1.04 2.666C26.657 55.784 25 58.199 25 61zm5-9c0-1.103.897-2 2-2s2 .897 2 2-.897 2-2 2-2-.897-2-2zm2 4a5.009 5.009 0 014.9 4h-9.8c.465-2.28 2.485-4 4.9-4zm25.96-24.334A3.97 3.97 0 0059 29c0-2.206-1.794-4-4-4s-4 1.794-4 4c0 1.028.4 1.957 1.04 2.666C49.657 32.784 48 35.199 48 38a1 1 0 001 1h12a1 1 0 001-1c0-2.8-1.657-5.216-4.04-6.334zM53 29c0-1.103.897-2 2-2s2 .897 2 2-.897 2-2 2-2-.897-2-2zm-2.9 8c.465-2.28 2.485-4 4.9-4s4.435 1.72 4.9 4zM9 22a1 1 0 001 1h12a1 1 0 001-1c0-2.8-1.657-5.216-4.04-6.334A3.97 3.97 0 0020 13c0-2.206-1.794-4-4-4s-4 1.794-4 4c0 1.028.4 1.957 1.04 2.666C10.657 16.784 9 19.199 9 22zm5-9c0-1.103.897-2 2-2s2 .897 2 2-.897 2-2 2-2-.897-2-2zm2 4a5.009 5.009 0 014.9 4h-9.8c.465-2.28 2.485-4 4.9-4zM9 54a1 1 0 001 1h12a1 1 0 001-1c0-2.8-1.657-5.216-4.04-6.334A3.97 3.97 0 0020 45c0-2.206-1.794-4-4-4s-4 1.794-4 4c0 1.028.4 1.957 1.04 2.666C10.657 48.784 9 51.199 9 54zm5-9c0-1.103.897-2 2-2s2 .897 2 2-.897 2-2 2-2-.897-2-2zm2 4a5.009 5.009 0 014.9 4h-9.8c.465-2.28 2.485-4 4.9-4zM2 38a1 1 0 001 1h12a1 1 0 001-1c0-2.8-1.657-5.216-4.04-6.334A3.97 3.97 0 0013 29c0-2.206-1.794-4-4-4s-4 1.794-4 4c0 1.028.4 1.957 1.04 2.666C3.657 32.784 2 35.199 2 38zm5-9c0-1.103.897-2 2-2s2 .897 2 2-.897 2-2 2-2-.897-2-2zm2 4a5.009 5.009 0 014.9 4H4.1c.465-2.28 2.485-4 4.9-4zm12-1c0 6.065 4.935 11 11 11s11-4.935 11-11-4.935-11-11-11-11 4.935-11 11zm11-9c4.962 0 9 4.037 9 9s-4.038 9-9 9-9-4.037-9-9 4.038-9 9-9z"/></svg>