<svg xmlns="http://www.w3.org/2000/svg" viewBox="0 0 478.94 478.94"><defs><style>.a{fill:#1c1c1b;}.b{fill:#eca931;}</style></defs><title>logo-2</title><path class="a" d="M414.57,58.25c-132.25,0-239.47,107.21-239.47,239.47V537.19H414.57C546.83,537.19,654,430,654,297.72V58.25Z" transform="translate(-175.1 -58.25)"/><path class="b" d="M288.52,254.59c-2.61-2.26-5.48-3.48-11.31-4.35l-6.79-1a17.8,17.8,0,0,1-8.35-3.4c-1.92-1.65-2.79-4.09-2.79-7.13,0-6.88,4.79-11.49,13.05-11.49,6.53,0,10.62,1.83,14.45,5.31l4.26-4.26c-5.31-4.79-10.53-6.79-18.45-6.79-12.26,0-19.83,7-19.83,17.49,0,5,1.56,8.79,4.69,11.57,2.7,2.35,6.53,3.92,11.4,4.7l7.22,1.13c4.53.7,6.1,1.22,8.1,3s3,4.52,3,7.74c0,7.22-5.57,11.49-14.62,11.49-7,0-11.75-1.66-16.88-6.79l-4.53,4.53c5.83,5.83,11.92,8.17,21.23,8.17,12.88,0,21.41-6.7,21.41-17.57C293.74,261.73,291.91,257.46,288.52,254.59Z" transform="translate(-175.1 -58.25)"/><path class="b" d="M331.14,222l-22.79,62h7l5-14h27.06l5,14h7.05l-22.71-62Zm-8.79,42.2L334,231.45l11.49,32.71Z" transform="translate(-175.1 -58.25)"/><polygon class="b" points="209.63 175.98 242.52 225.66 248.78 225.66 248.78 163.71 242.17 163.71 242.17 213.22 209.28 163.71 203.01 163.71 203.01 225.66 209.63 225.66 209.63 175.98"/><polygon class="b" points="311.51 163.71 269.05 163.71 269.05 169.63 286.97 169.63 286.97 225.66 293.58 225.66 293.58 169.63 311.51 169.63 311.51 163.71"/><path class="b" d="M544.81,283.91,522.1,222h-5.57l-22.8,62h7l5-14H532.8l5,14Zm-37.07-19.75,11.66-32.71,11.49,32.71Z" transform="translate(-175.1 -58.25)"/><rect class="b" x="388.4" y="163.71" width="6.61" height="61.95"/><path class="b" d="M282,344.16c-2.62-2.27-5.49-3.48-11.32-4.35l-6.78-1.05a17.88,17.88,0,0,1-8.36-3.39c-1.91-1.65-2.78-4.09-2.78-7.14,0-6.87,4.78-11.48,13.05-11.48,6.53,0,10.62,1.82,14.44,5.31l4.27-4.27C279.25,313,274,311,266.11,311c-12.27,0-19.83,7-19.83,17.49,0,5,1.56,8.79,4.69,11.58,2.7,2.34,6.53,3.91,11.4,4.69l7.22,1.13c4.53.7,6.09,1.22,8.09,3s3,4.53,3,7.75c0,7.22-5.56,11.48-14.62,11.48-7,0-11.74-1.65-16.87-6.78l-4.53,4.52c5.83,5.83,11.92,8.18,21.23,8.18,12.88,0,21.41-6.7,21.41-17.58C287.26,351.29,285.43,347,282,344.16Z" transform="translate(-175.1 -58.25)"/><polygon class="b" points="170.7 281.03 141.29 281.03 141.29 253.28 134.68 253.28 134.68 315.23 141.29 315.23 141.29 286.95 170.7 286.95 170.7 315.23 177.31 315.23 177.31 253.28 170.7 253.28 170.7 281.03"/><rect class="b" x="203.93" y="253.28" width="6.61" height="61.95"/><path class="b" d="M444.37,344.16c-2.61-2.27-5.48-3.48-11.31-4.35l-6.79-1.05a17.8,17.8,0,0,1-8.35-3.39c-1.92-1.65-2.79-4.09-2.79-7.14,0-6.87,4.79-11.48,13.05-11.48,6.53,0,10.62,1.82,14.45,5.31l4.26-4.27C441.58,313,436.36,311,428.44,311c-12.26,0-19.83,7-19.83,17.49,0,5,1.56,8.79,4.7,11.58,2.69,2.34,6.52,3.91,11.39,4.69l7.22,1.13c4.53.7,6.1,1.22,8.1,3s3,4.53,3,7.75c0,7.22-5.57,11.48-14.62,11.48-7,0-11.75-1.65-16.88-6.78L407,365.82c5.83,5.83,11.92,8.18,21.23,8.18,12.88,0,21.41-6.7,21.41-17.58C449.59,351.29,447.76,347,444.37,344.16Z" transform="translate(-175.1 -58.25)"/><polygon class="b" points="333.04 281.03 303.63 281.03 303.63 253.28 297.01 253.28 297.01 315.23 303.63 315.23 303.63 286.95 333.04 286.95 333.04 315.23 339.65 315.23 339.65 253.28 333.04 253.28 333.04 281.03"/><path class="b" d="M556.25,311.53l-22.8,62h7l5-14h27.07l5,14h7l-22.71-62Zm-8.79,42.2L559.12,321l11.48,32.72Z" transform="translate(-175.1 -58.25)"/><path class="b" d="M637,179.3a2.37,2.37,0,0,0-2.36,2.37,9.91,9.91,0,0,1-9.9,9.89H579a14.64,14.64,0,0,0-14.63,14.63v2.18a2.37,2.37,0,0,0,4.74,0v-2.18a9.91,9.91,0,0,1,9.89-9.9h45.77a14.64,14.64,0,0,0,14.63-14.62A2.37,2.37,0,0,0,637,179.3Z" transform="translate(-175.1 -58.25)"/></svg>