<svg xmlns="http://www.w3.org/2000/svg" viewBox="0 0 739.16 1146.18"><defs><style>.a{fill:#e9a854}</style></defs><path class="a" d="M565.68 912.56h-.45a2.84 2.84 0 01-2.36-3.24c0-.19 1.68-11.67-5.28-19.78-4.81-5.61-12.69-8.45-23.42-8.45H174.75c-2 .1-26.38 1-43.8-15.36-11.19-10.53-16.86-25.75-16.86-45.22a2.84 2.84 0 115.67 0c0 17.83 5.06 31.64 15 41.06 16 15.05 39.48 13.87 39.71 13.86h359.7c12.49 0 21.83 3.53 27.76 10.48 8.64 10.1 6.64 23.69 6.54 24.26a2.83 2.83 0 01-2.79 2.39z"/><path class="a" d="M95.63 821.11c-5.13 0-19.46-1-30.24-11-7.78-7.24-12-17.56-12.5-30.72-6.89-.25-24.5-2.16-37.64-14.73C5.13 755.01 0 741.2 0 723.73c0-17.23 5.11-31 15.19-40.88 16.7-16.4 40.85-16.15 41.87-16.12h94a2.84 2.84 0 010 5.67h-94c-.28 0-22.91-.19-37.88 14.54-8.93 8.79-13.46 21.16-13.46 36.8 0 15.84 4.53 28.22 13.46 36.79 14.55 14 36.2 13.22 36.42 13.21a2.84 2.84 0 013 2.83c0 12.85 3.6 22.73 10.7 29.36 11.24 10.49 27.76 9.49 27.93 9.48h78.44a2.84 2.84 0 110 5.67H97.43c-.26 0-.86.03-1.8.03zm508.79 72.2a2.83 2.83 0 01-2.83-2.83c0-18.52-5.19-32.68-15.41-42.08-15.92-14.63-39-12.87-39.27-12.85H360.67a2.84 2.84 0 010-5.67h185.9c2.2-.16 26.09-1.58 43.41 14.3 11.47 10.52 17.29 26.09 17.29 46.29a2.84 2.84 0 01-2.85 2.84zm-308.64-57.74c-2.52 0-16.06-.47-25.74-9.86-6.44-6.25-9.7-15-9.7-26a2.84 2.84 0 115.67 0c0 9.38 2.67 16.74 7.95 21.88 8.76 8.53 22 8.29 22.13 8.28h26.58a2.84 2.84 0 110 5.67h-26.89z"/><path class="a" d="M295.67 818.56a2.83 2.83 0 01-2.82-2.62c0-.4-.66-9.79 5.6-16.54 4-4.32 9.8-6.51 17.22-6.51 5.65 0 10-1.58 13.08-4.7 5-5.16 4.84-13 4.84-13.12v-.3c0-.11.73-12-6.78-20-4.75-5.09-11.86-7.67-21.14-7.67h-90.41c-1.39.08-13.46.51-22.2-7.62-5.79-5.39-8.72-13.2-8.72-23.21a2.84 2.84 0 115.67 0c0 8.35 2.31 14.75 6.88 19 7.25 6.78 18 6.15 18.09 6.14h90.69c10.94 0 19.46 3.2 25.33 9.51 8.79 9.46 8.35 22.51 8.26 24.13 0 1.37-.09 10.53-6.4 17.07-4.14 4.29-9.92 6.46-17.19 6.46-5.76 0-10.14 1.57-13 4.67-4.58 4.9-4.14 12.22-4.13 12.29a2.84 2.84 0 01-2.63 3zm-109.5-114h-.2a2.83 2.83 0 01-2.63-3c0-.38 3.1-37.89 38.08-37.89h268.87c.29 0 28.61.92 47.66-17.4 11.68-11.21 17.6-27.36 17.6-48 0-20.86-5.92-37-17.59-48-18.58-17.44-45.84-15.94-46.11-15.92h-38.51a2.84 2.84 0 110-5.67h38.23c2.19-.12 30.19-1.34 50.21 17.42 12.88 12.08 19.42 29.62 19.42 52.13 0 22.24-6.52 39.77-19.38 52.1-20.56 19.73-49.77 19-51.72 18.94H221.42c-12.39 0-21.58 5.37-27.32 16a46.78 46.78 0 00-5.1 16.65 2.84 2.84 0 01-2.83 2.64zm388.57-31.99h-38.73a2.84 2.84 0 110-5.67h38.16c.27 0 17.8.43 29.48-10.88 7.09-6.87 10.69-16.72 10.69-29.28a2.84 2.84 0 01.85-2 2.9 2.9 0 012-.81c.24 0 24.32.39 40.33-15.24 9.63-9.41 14.52-22.76 14.52-39.67a2.84 2.84 0 115.67 0c0 18.52-5.48 33.25-16.27 43.76-14.51 14.14-34.22 16.42-41.54 16.77-.52 12.87-4.68 23.16-12.39 30.61-12.16 11.75-29.14 12.41-32.77 12.41z"/><path class="a" d="M629.34 593.39a2.83 2.83 0 01-2.83-2.69c-.78-15.46 12.85-26.21 25.93-27.3h.23c4.8 0 9.59.07 14.23.13 14.1.19 27.42.37 41.47-1.11a27.67 27.67 0 0023.6-18.06c1.69-5.94 1.94-11.38.89-18.72a35.08 35.08 0 00-7.3-15.51c-5.47-5.42-11.65-8.06-18.89-8.06-50.58-1.38-102-1.33-151.65-1.28-22.11 0-45 .05-67.47 0a2.84 2.84 0 010-5.67c22.48.1 45.33.08 67.43.05 49.73-.05 101.16-.1 151.74 1.28 8.67 0 16.4 3.31 22.93 9.83l.21.23a41.06 41.06 0 018.58 18.31c1.18 8.3.87 14.44-1.07 21.24l-.06.19a33.36 33.36 0 01-28.4 21.76c-14.33 1.51-27.81 1.33-42.09 1.14-4.58-.06-9.3-.13-14-.13-10.45.93-21.2 9.7-20.62 21.36a2.84 2.84 0 01-2.69 3zm-221.17-92.66h-48.16a2.84 2.84 0 110-5.67h48.16a2.84 2.84 0 110 5.67zm-179.5 33.33a2.83 2.83 0 01-2.83-2.83c0-10.61 3.17-19.11 9.42-25.26 10.35-10.2 25.33-10.07 26-10.08h52a2.84 2.84 0 110 5.67h-52c-.17 0-13.34 0-22 8.48-5.1 5.05-7.69 12.17-7.69 21.19a2.84 2.84 0 01-2.9 2.83z"/><path class="a" d="M229.86 535.56c-1.67 0-15.84-.3-25.77-10.08-6.25-6.15-9.42-14.65-9.42-25.25a2.84 2.84 0 115.67 0c0 9 2.59 16.13 7.69 21.18 8.63 8.53 21.79 8.47 21.94 8.48h45.2a2.84 2.84 0 110 5.67h-45.31zm416.06 273.5h-81a29.84 29.84 0 010-59.67h1.8a29.87 29.87 0 0129.7-27h18a29.87 29.87 0 0129.7 27h1.8a29.84 29.84 0 110 59.67zm-81-54a24.17 24.17 0 000 48.33h81a24.17 24.17 0 100-48.33h-4.5a2.83 2.83 0 01-2.83-2.83 24.19 24.19 0 00-24.17-24.17h-18a24.19 24.19 0 00-24.16 24.17 2.84 2.84 0 01-2.84 2.83zm-38.25-18a20.84 20.84 0 1120.84-20.83 20.85 20.85 0 01-20.84 20.83zm0-36a15.17 15.17 0 1015.17 15.17 15.18 15.18 0 00-15.17-15.17zM418.92 939.52H267.67c-17.35 0-23.11-15.33-23.74-23.43v-27.41a4.25 4.25 0 018.5 0v26.86c.21 2.11 2 15.43 15.25 15.43h150.45s6.2.52 10.28-3.2c2.67-2.43 4-6.32 4-11.57v-29a4.25 4.25 0 118.5 0v29c0 7.79-2.31 13.82-6.88 17.94-5.27 4.78-12.01 5.38-15.11 5.38zM248.17 747.48a4.25 4.25 0 01-4.24-4 9.65 9.65 0 01.33-3.31l.1-.42c3.46-14.65 15.46-23.36 26-31 3-2.16 5.78-4.19 8.38-6.32 5.74-4.7 15.88-14.42 19.29-26.77a4.254 4.254 0 018.2 2.27c-4 14.61-15.59 25.75-22.11 31.08-2.79 2.28-5.83 4.49-8.77 6.62-9.84 7.15-20 14.53-22.75 26.12l-.12.49a3.74 3.74 0 00-.11.46 2.49 2.49 0 000 .37 4.25 4.25 0 01-4 4.47zm186.49.69h-.23a4.25 4.25 0 01-4-4.46 6.26 6.26 0 00-.22-2c-2.73-11.59-12.91-19-22.76-26.12-2.93-2.13-6-4.34-8.76-6.62-6.53-5.34-18.07-16.47-22.11-31.08a4.254 4.254 0 018.2-2.27c3.41 12.35 13.55 22.07 19.29 26.77 2.6 2.12 5.41 4.16 8.38 6.32 10.58 7.68 22.58 16.39 26 31a14.9 14.9 0 01.43 4.42 4.25 4.25 0 01-4.22 4.04zm1.01 85.31a4.25 4.25 0 01-4.25-4.25v-64.5a4.25 4.25 0 118.5 0v64.5a4.25 4.25 0 01-4.25 4.25z"/><path class="a" d="M400.08 920.82h-75.91a2.84 2.84 0 010-5.67h75.63c.09 0 8.71.27 14.42-5.22 3.48-3.35 5.24-8.25 5.24-14.57a2.84 2.84 0 015.67 0c0 7.94-2.36 14.23-7 18.7-6.66 6.33-15.76 6.76-18.05 6.76zm-38.63-103.81a56.39 56.39 0 01-22-4.56 2.84 2.84 0 012.41-5.14c.2.1 20.84 9.49 39-1 20.83-12 41.82-1.55 42.7-1.1a2.84 2.84 0 01-2.57 5.06c-.28-.15-19.23-9.43-37.31 1a44.22 44.22 0 01-22.23 5.74zm-15.44-60.45a2.84 2.84 0 01-2.84-2.83v-73.5a2.84 2.84 0 115.67 0v73.5a2.83 2.83 0 01-2.83 2.83zm-12.34-106.17a2.83 2.83 0 01-2.83-2.83v-30a2.84 2.84 0 015.67 0v30a2.83 2.83 0 01-2.84 2.83zm12.34 0a2.83 2.83 0 01-2.84-2.83v-30a2.84 2.84 0 015.67 0v30a2.83 2.83 0 01-2.83 2.83zm-12.34 61.67a2.83 2.83 0 01-2.83-2.83v-29a2.84 2.84 0 115.67 0v29a2.84 2.84 0 01-2.84 2.83z"/><path class="a" d="M300.17 639.48h-.07c-7.26-.13-18-5.07-18-18.13v-17.12a4.25 4.25 0 014.25-4.26h94.12a4.26 4.26 0 010 8.51h-89.9v12.87c0 8.87 8.1 9.57 9.73 9.62a4.26 4.26 0 01-.11 8.51z"/><path class="a" d="M377.21 641.48a4.26 4.26 0 01-.1-8.51c1.64-.05 9.73-.76 9.73-9.62v-38.54h-89.88a4.25 4.25 0 01-4.25-4.25v-21.67a4.25 4.25 0 014.25-4.25h75.13v-14.16h-60.75a4.26 4.26 0 010-8.51h65a4.25 4.25 0 014.25 4.26v22.66a4.25 4.25 0 01-4.25 4.25h-75.12v13.17h89.87a4.25 4.25 0 014.25 4.25v42.79c0 13.06-10.79 18-18 18.13zm72.46 6.58h-53a2.84 2.84 0 010-5.67h53c49.47 0 51.12-35.72 51.17-37.24a2.83 2.83 0 012.83-2.76h.08a2.83 2.83 0 012.76 2.9c-.02.43-1.71 42.77-56.84 42.77zm-364.25-.5a24.09 24.09 0 1124.09-24.08 24.1 24.1 0 01-24.09 24.08zm0-42.5a18.42 18.42 0 1018.42 18.42 18.43 18.43 0 00-18.42-18.42zm47 16a14.09 14.09 0 1114.09-14.05 14.1 14.1 0 01-14.09 14.05zm0-22.5a8.42 8.42 0 108.42 8.42 8.42 8.42 0 00-8.42-8.42zm-34-178.25a14.09 14.09 0 1114.09-14.08 14.1 14.1 0 01-14.09 14.08zm0-22.5a8.42 8.42 0 108.42 8.42 8.42 8.42 0 00-8.42-8.42zm441-39.5a14.09 14.09 0 1114.09-14.08 14.09 14.09 0 01-14.09 14.08zm0-22.5a8.42 8.42 0 108.42 8.42 8.42 8.42 0 00-8.42-8.42zM37.67 726.39a2.83 2.83 0 01-2.83-2.83c0-14.43 4.12-25.39 12.24-32.6 12.23-10.84 28.89-9 29.6-8.88a2.84 2.84 0 01-.68 5.63c-.25 0-15-1.59-25.2 7.53-6.83 6.08-10.29 15.61-10.29 28.32a2.83 2.83 0 01-2.84 2.83zM708 533.73a2.84 2.84 0 01-2.8-2.43c-.1-.66-2.55-16.24-15.86-16.24h-59.33a2.84 2.84 0 110-5.67h59.33c14.6 0 20.43 13.8 21.47 21.1a2.84 2.84 0 01-2.81 3.24z"/><path class="a" d="M358.95 537.39a2.83 2.83 0 01-2.83-2.83v-56.33a2.83 2.83 0 115.66 0v56.33a2.83 2.83 0 01-2.83 2.83zm-32.67 1.67a2.83 2.83 0 01-2.83-2.83v-58a2.84 2.84 0 115.67 0v58a2.84 2.84 0 01-2.84 2.83z"/><path class="a" d="M375.78 481.06h-66.33a2.84 2.84 0 010-5.67h66.33a2.84 2.84 0 110 5.67zm18.5-13.33H290.95a2.84 2.84 0 010-5.67h103.33a2.84 2.84 0 110 5.67z"/><path class="a" d="M299.34 467.06a2.82 2.82 0 01-2.83-2.75l-.67-23a2.86 2.86 0 01.8-2.06 2.83 2.83 0 012-.86h86.34a2.84 2.84 0 012.83 2.84v23a2.84 2.84 0 01-5.67 0v-20.17h-80.57l.58 20.08a2.83 2.83 0 01-2.75 2.92z"/><path class="a" d="M309.67 443.43a3 3 0 01-1.53-.42 3 3 0 01-1-4.09c.18-.3 15.08-26 15.08-70.28 0-44.59-15.07-77.41-15.22-77.74a3 3 0 015.4-2.52c.65 1.38 15.78 34.27 15.78 80.26s-15.3 72.25-15.95 73.37a3 3 0 01-2.56 1.42zm65 .28a3 3 0 01-2.68-1.69c-16.85-35.09-20.21-79.32-9.47-124.53a3 3 0 115.8 1.37c-10.42 43.9-7.21 86.72 9 120.58a3 3 0 01-2.69 4.27z"/><path class="a" d="M330.25 414.01a2.94 2.94 0 01-.71-.09 3 3 0 01-2.19-3.6c5.33-21.72 6.3-45.29 2.86-70.06-.9-6.51-2.12-13.11-3.63-19.61a3 3 0 115.8-1.35c1.55 6.68 2.81 13.45 3.74 20.14 3.53 25.52 2.53 49.85-3 72.3a3 3 0 01-2.87 2.27zm20.92-121.95h-71.76c-8.33-.78-24.07-6.86-24.07-24.32a2.84 2.84 0 012.83-2.84h32.5a2.84 2.84 0 110 5.67h-29.48c1.86 13.65 17 15.65 18.62 15.83h71.36a2.84 2.84 0 110 5.67zm43 0h-9.75a2.84 2.84 0 010-5.67h9.6c1.62-.18 16.77-2.24 18.63-15.83h-91.48a2.84 2.84 0 010-5.67h94.5a2.83 2.83 0 012.84 2.84c0 17.46-15.75 23.54-24.08 24.32zM189.2 1005.71c-3.07-2.66-6.45-4.1-13.31-5.12l-8-1.23c-3.79-.61-7.57-2.05-9.83-4s-3.27-4.81-3.27-8.39c0-8.09 5.63-13.51 15.35-13.51 7.68 0 12.49 2.14 17 6.24l5-5c-6.24-5.63-12.38-8-21.7-8-14.43 0-23.34 8.19-23.34 20.57 0 5.84 1.84 10.34 5.53 13.62 3.17 2.76 7.68 4.6 13.41 5.53l8.49 1.32c5.33.82 7.17 1.44 9.52 3.49s3.49 5.32 3.49 9.1c0 8.5-6.56 13.52-17.2 13.52-8.19 0-13.82-1.95-19.86-8l-5.32 5.32c6.86 6.86 14 9.63 25 9.63 15.15 0 25.18-7.89 25.18-20.68 0-6.02-2.15-11.03-6.14-14.41zm50.15-38.39l-26.78 72.88h8.29l5.83-16.48h31.84l5.83 16.48h8.21l-26.71-72.88zm-10.34 49.69l13.71-38.49 13.52 38.49zm73.37-35.26l38.69 58.45h7.37v-72.88h-7.78v58.24l-38.69-58.24h-7.37v72.88h7.78v-58.45zm119.85-14.43h-49.95v6.96h21.08v65.92h7.78v-65.92h21.09v-6.96zm68.47 72.88l-26.72-72.88h-6.55l-26.86 72.88h8.29l5.84-16.48h31.87l5.84 16.48zm-43.61-23.19l13.72-38.49 13.51 38.49zm65.6-49.69h7.78v72.88h-7.78zm-331.12 143.75c-3.08-2.66-6.45-4.09-13.31-5.12l-8-1.22c-3.79-.62-7.58-2-9.83-4s-3.28-4.81-3.28-8.39c0-8.09 5.63-13.51 15.36-13.51 7.67 0 12.48 2.15 17 6.24l5-5c-6.24-5.63-12.38-8-21.7-8-14.43 0-23.33 8.19-23.33 20.58 0 5.83 1.84 10.34 5.52 13.61 3.18 2.76 7.68 4.6 13.41 5.53l8.5 1.33c5.32.82 7.16 1.43 9.52 3.48s3.48 5.32 3.48 9.11c0 8.49-6.55 13.51-17.2 13.51-8.19 0-13.82-2-19.86-8l-5.32 5.33c6.86 6.86 14 9.62 25 9.62 15.14 0 25.18-7.88 25.18-20.68.01-6.03-2.14-11.04-6.14-14.42zm75.02-5.73h-34.6v-32.66h-7.78v72.88h7.78v-33.26h34.6v33.26h7.78v-72.88h-7.78v32.66zm39.08-32.66h7.78v72.88h-7.78zm76.9 38.39c-3.07-2.66-6.45-4.09-13.31-5.12l-8-1.22c-3.79-.62-7.57-2-9.83-4s-3.27-4.81-3.27-8.39c0-8.09 5.63-13.51 15.35-13.51 7.68 0 12.49 2.15 17 6.24l5-5c-6.25-5.63-12.38-8-21.7-8-14.43 0-23.34 8.19-23.34 20.58 0 5.83 1.84 10.34 5.53 13.61 3.17 2.76 7.68 4.6 13.41 5.53l8.49 1.33c5.33.82 7.17 1.43 9.52 3.48s3.48 5.32 3.48 9.11c0 8.49-6.55 13.51-17.19 13.51-8.19 0-13.82-2-19.86-8l-5.32 5.33c6.85 6.86 14 9.62 25 9.62 15.15 0 25.18-7.88 25.18-20.68-.03-6.03-2.14-11.04-6.14-14.42zm74.99-5.73h-34.6v-32.66h-7.78v72.88h7.78v-33.26h34.6v33.26h7.77v-72.88h-7.77v32.66zm56.59-32.65l-26.82 72.87h8.29l5.84-16.47h31.83l5.84 16.47h8.29l-26.72-72.87zm-10.34 49.64l13.76-38.49 13.51 38.49zm105.34-205.19a2.78 2.78 0 00-2.78 2.78 11.65 11.65 0 01-11.64 11.64h-53.84a17.23 17.23 0 00-17.21 17.21v2.56a2.79 2.79 0 105.57 0v-2.56a11.65 11.65 0 0111.64-11.64h53.84a17.23 17.23 0 0017.21-17.21 2.78 2.78 0 00-2.79-2.78zM358.92 801.81a7.59 7.59 0 117.59-7.58 7.59 7.59 0 01-7.59 7.58zm0-9.5a1.92 1.92 0 101.92 1.92 1.92 1.92 0 00-1.92-1.92zm17.34-12.83a7.59 7.59 0 117.58-7.59 7.59 7.59 0 01-7.58 7.59zm0-9.5a1.92 1.92 0 101.91 1.91 1.92 1.92 0 00-1.91-1.88zm46.04 51.75a2.84 2.84 0 01-2.84-2.84v-61.41c0-.11-.42-15.25-11.4-23.76a2.833 2.833 0 013.47-4.48c13.18 10.21 13.59 27.46 13.6 28.19v61.46a2.84 2.84 0 01-2.83 2.84zm-31.13-236.17a2.84 2.84 0 01-2-4.84l29.25-29.25a2.84 2.84 0 014 4l-29.25 29.25a2.86 2.86 0 01-2 .84z"/><path class="a" d="M429.17 563.06a2.83 2.83 0 01-2-.83l-28.75-28.75a2.83 2.83 0 010-4l10.75-10.75a2.84 2.84 0 014 4l-8.75 8.75 24.74 24.74 7.58-7.58-17.92-17.91a2.84 2.84 0 014-4l19.92 19.92a2.84 2.84 0 010 4l-11.58 11.58a2.86 2.86 0 01-1.99.83zm8.5-33.75a7.09 7.09 0 01-5-12.1l41.7-41.69c2.05-2.15 40.88-44 .05-84.78-45.56-45.56-201-145.55-202.57-146.55l-.11-.08a175.9 175.9 0 01-44.24-45.75c-25.08-38.33-26.82-79.33-5-118.58a158.83 158.83 0 0154.07-57.53A143.8 143.8 0 01347.76.09c49.81-1.74 95.7 23.92 125.81 70.27 35.31 54.32 26.24 103 12.42 134.23-14.29 32.42-36.12 52.68-38.42 54.78l-14 14a7.09 7.09 0 01-10-10l14.17-14.16.3-.29a161.78 161.78 0 0035.23-50.51c17.81-40.66 13.93-81.14-11.54-120.32-14.32-22-32-38.75-52.53-49.7a120.82 120.82 0 00-60.92-14.14c-46 1.6-89.48 29.34-113.41 72.42-19.36 34.84-17.85 69.81 4.48 103.93a163.84 163.84 0 0040.22 41.71c7.43 4.77 158.4 101.94 204.86 148.4 26.63 26.63 25.15 53.89 19.21 72.07a92.34 92.34 0 01-19.13 32.63l-.08.08-41.75 41.75a7.05 7.05 0 01-5.01 2.07z"/><path class="a" d="M368.17 270.06a2.84 2.84 0 01-2-4.84l6.49-6.49-9-9a2.84 2.84 0 012.14-4.84 8 8 0 005.2-1.85 7.11 7.11 0 001.83-5.31v-24.42h-60.07v23.64c.23 1.12 1.61 6.44 6.16 6.44a2.84 2.84 0 110 5.67c-7.83 0-11.14-7.44-11.79-11.37a2.38 2.38 0 010-.46v-26.75a2.84 2.84 0 012.83-2.84h65.71a2.84 2.84 0 012.84 2.84v27.25c0 4-1.22 7.17-3.62 9.45a11.72 11.72 0 01-3.49 2.27l7.28 7.27a2.85 2.85 0 010 4l-8.5 8.5a2.86 2.86 0 01-2.01.84z"/><path class="a" d="M369.01 212.73a2.84 2.84 0 01-2.84-2.84v-30.12c-21-13-39.65-3-44.33 0v29.83a2.84 2.84 0 01-5.67 0v-31.37a2.84 2.84 0 011.12-2.26c.25-.19 25.26-18.67 53.28-.11a2.86 2.86 0 011.27 2.37v31.66a2.84 2.84 0 01-2.83 2.84zm-27-86.94a2.84 2.84 0 01-2.84-2.84v-5.72a2.84 2.84 0 115.67 0v5.72a2.84 2.84 0 01-2.83 2.84zm0 27.94a2.84 2.84 0 01-2.84-2.84V131.8a2.84 2.84 0 015.67 0v19.09a2.84 2.84 0 01-2.83 2.84zm74.83 35.66h-7.13a2.84 2.84 0 010-5.67h7.13a2.84 2.84 0 010 5.67zm-15.96 0h-17.71a2.84 2.84 0 010-5.67h17.71a2.84 2.84 0 010 5.67zm-4.8-45.74a2.84 2.84 0 01-2-4.84l3.49-3.49a2.84 2.84 0 014 4l-3.49 3.49a2.86 2.86 0 01-2 .84zm-20.31 20.36a2.81 2.81 0 01-2-.83 2.85 2.85 0 010-4l13-13a2.83 2.83 0 014 4l-13 13a2.79 2.79 0 01-2 .83zm-87.2-20.71a2.83 2.83 0 01-2-.83l-3.14-3.14a2.84 2.84 0 014-4l3.14 3.14a2.84 2.84 0 01-2 4.84zm20.67 20.71a2.79 2.79 0 01-2-.83l-13.75-13.74a2.84 2.84 0 014-4l13.75 13.74a2.85 2.85 0 010 4 2.81 2.81 0 01-2 .83zm-5.07 25.38h-19.43a2.84 2.84 0 110-5.67h19.43a2.84 2.84 0 110 5.67zm-28.47 0h-5.19a2.84 2.84 0 110-5.67h5.19a2.84 2.84 0 110 5.67zm81.42 33.67h-27.34a2.84 2.84 0 010-5.67h27.34a2.84 2.84 0 010 5.67zm-69.74 191.29a7.09 7.09 0 01-4.87-12.24c9.41-8.89 13.51-12.81 22.54-21.84a7.09 7.09 0 0110 10c-9.16 9.16-13.31 13.13-22.83 22.12a7 7 0 01-4.84 1.96zm-19.58 38.51a2.83 2.83 0 01-2-.83l-22.84-22.84a2.85 2.85 0 010-4l12-12a2.84 2.84 0 014 4l-10 10 18.84 18.82 10.16-10.15-14.66-14.67a2.84 2.84 0 014-4l16.66 16.67a2.84 2.84 0 010 4l-14.15 14.15a2.86 2.86 0 01-2.01.85z"/><path class="a" d="M233.92 447.56a2.84 2.84 0 01-2-4.84l13.87-13.87a2.84 2.84 0 014 4l-13.87 13.87a2.86 2.86 0 01-2 .84zm-20.75 51a2.83 2.83 0 01-2-.83l-15.13-15.12a2.85 2.85 0 010-4l21.88-21.88a2.84 2.84 0 014 4l-19.87 19.87 11.11 11.12 21.63-21.64 2.47-8.94a2.85 2.85 0 011.91-2l9.4-2.87 12.09-12.09a2.84 2.84 0 014 4l-12.57 12.63a2.89 2.89 0 01-1.17.71l-8.6 2.63-2.25 8.16a2.73 2.73 0 01-.73 1.25l-24.16 24.17a2.86 2.86 0 01-2.01.83zm76.34-66.67a2.8 2.8 0 01-2-.83l-22.84-22.83a2.84 2.84 0 014-4l22.84 22.78a2.83 2.83 0 010 4 2.79 2.79 0 01-2 .88zm7.33-5.66a2.86 2.86 0 01-2-.83l-22.83-22.84a2.84 2.84 0 014-4l22.83 22.84a2.84 2.84 0 01-2 4.84z"/><path class="a" d="M223.84 487.56a2.81 2.81 0 01-2-.81l-7.86-7.74a2.84 2.84 0 114-4l7.87 7.71a2.83 2.83 0 010 4 2.8 2.8 0 01-2.01.84zm5.83-6.17a2.86 2.86 0 01-2-.8l-7.88-7.71a2.85 2.85 0 014-4.06l7.88 7.71a2.84 2.84 0 01-2 4.86zm-137 206.9c4.56 0 4.57-7.09 0-7.09s-4.57 7.09 0 7.09zm97 133.52c4.56 0 4.57-7.09 0-7.09s-4.57 7.09 0 7.09zm152.17 14.46c4.56 0 4.57-7.08 0-7.08s-4.57 7.08 0 7.08zm262.17 72.5c4.56 0 4.56-7.09 0-7.09s-4.57 7.09 0 7.09zm-293.75 12.76c4.56 0 4.56-7.09 0-7.09s-4.57 7.09 0 7.09zm193.41-326.09c4.56 0 4.57-7.09 0-7.09s-4.57 7.09 0 7.09zm111-79.67c4.56 0 4.57-7.09 0-7.09s-4.57 7.09 0 7.09zm-434.66.33c4.56 0 4.56-7.08 0-7.08s-4.57 7.08 0 7.08zm14.5-217.5c4.56 0 4.56-7.08 0-7.08s-4.57 7.08 0 7.08zm36.16 160.17c4.56 0 4.57-7.09 0-7.09s-4.57 7.09 0 7.09zm104.45-255.88a2.81 2.81 0 01-2-.83 2.85 2.85 0 010-4l16.67-16.66a2.84 2.84 0 114 4l-16.67 16.66a2.79 2.79 0 01-2 .83z"/><path class="a" d="M351.78 202.89a2.79 2.79 0 01-2-.83l-16.67-16.66a2.84 2.84 0 014-4l16.68 16.61a2.85 2.85 0 010 4 2.81 2.81 0 01-2.01.88zm29.39 700.67h-98.5a2.84 2.84 0 010-5.67h98.5a2.84 2.84 0 110 5.67zm-313.5-410.5a2.83 2.83 0 01-2.82-2.54c-.1-1-2.44-25.42 13.52-43.14 10-11.11 24.88-17 44.2-17.46a78.35 78.35 0 018-26.51c7-13.46 21.52-29.52 50.57-29.52h75.5a2.84 2.84 0 110 5.67h-75.47c-21 0-36.37 8.91-45.55 26.48a72.24 72.24 0 00-7.62 26.81 2.82 2.82 0 01-2.83 2.71c-18.9 0-33.21 5.24-42.55 15.58-14.28 15.81-12.15 38.57-12.13 38.8a2.83 2.83 0 01-2.53 3.1z"/><path class="a" d="M138.67 494.06h-115a2.84 2.84 0 010-5.67h115a2.84 2.84 0 110 5.67zm298-115h-59a2.84 2.84 0 010-5.67h59a2.84 2.84 0 110 5.67zm136.5 19.5a2.83 2.83 0 01-2.83-2.83c0-15-17.75-19.21-19.94-19.67h-56.73a2.84 2.84 0 010-5.67h57a4.21 4.21 0 01.5 0c8.59 1.53 24.84 8.78 24.84 25.3a2.84 2.84 0 01-2.84 2.87z"/><path class="a" d="M652.17 479.56a2.83 2.83 0 01-2.83-2.83c0-24-6.93-42.89-20.58-56.06-22.36-21.56-55.65-20.62-56-20.61h-33.09a2.84 2.84 0 010-5.67h32.95c2.12-.07 36.16-.83 60 22.17 14.83 14.27 22.35 34.52 22.35 60.17a2.84 2.84 0 01-2.8 2.83zM217.71 346.68h-132a26.84 26.84 0 010-53.67h29.21a29.88 29.88 0 0129.75-27.62h46a29.87 29.87 0 0129.77 27.76 26.83 26.83 0 01-2.73 53.53zm-132-48a21.17 21.17 0 000 42.33h132a21.17 21.17 0 000-42.33 2.91 2.91 0 01-2.05-.85 2.87 2.87 0 01-.84-2.05v-.55a24.19 24.19 0 00-24.17-24.17h-46a24.19 24.19 0 00-24.16 24.17v.55a2.81 2.81 0 01-.8 2 2.85 2.85 0 01-2 .86z"/><path class="a" d="M174.67 298.06h-57a2.84 2.84 0 010-5.67h57a2.84 2.84 0 110 5.67zm466.75 457h-42.25a2.84 2.84 0 010-5.67h42.25a2.84 2.84 0 110 5.67z"/></svg>