<svg xmlns="http://www.w3.org/2000/svg" viewBox="0 0 478.94 478.94"><path d="M239.47 0C107.22 0 0 107.21 0 239.47v239.47h239.47c132.26 0 239.43-107.19 239.43-239.47V0z" fill="#201600"/><path d="M113.42 196.34c-2.61-2.26-5.48-3.48-11.31-4.35l-6.79-1a17.8 17.8 0 01-8.35-3.4c-1.92-1.65-2.79-4.09-2.79-7.13 0-6.88 4.79-11.49 13.05-11.49 6.53 0 10.62 1.83 14.45 5.31l4.26-4.26c-5.31-4.79-10.53-6.79-18.45-6.79-12.26 0-19.83 7-19.83 17.49 0 5 1.56 8.79 4.69 11.57 2.7 2.35 6.53 3.92 11.4 4.7l7.22 1.13c4.53.7 6.1 1.22 8.1 3s3 4.52 3 7.74c0 7.22-5.57 11.49-14.62 11.49-7 0-11.75-1.66-16.88-6.79l-4.53 4.53c5.83 5.83 11.92 8.17 21.23 8.17 12.88 0 21.41-6.7 21.41-17.57-.04-5.21-1.87-9.48-5.26-12.35zm42.62-32.59l-22.79 62h7l5-14h27.06l5 14h7.05l-22.71-62zm-8.79 42.2l11.65-32.75 11.49 32.71zm62.38-29.97l32.89 49.68h6.26v-61.95h-6.61v49.51l-32.89-49.51h-6.27v61.95h6.62v-49.68zm101.88-12.27h-42.46v5.92h17.92v56.03h6.61v-56.03h17.93v-5.92zm58.2 61.95L347 163.75h-5.57l-22.8 62h7l5-14h27.07l5 14zm-37.07-19.75l11.66-32.71 11.49 32.71zm55.76-42.2h6.61v61.95h-6.61zm-281.5 122.2c-2.62-2.27-5.49-3.48-11.32-4.35l-6.78-1.05a17.88 17.88 0 01-8.36-3.39c-1.91-1.65-2.78-4.09-2.78-7.14 0-6.87 4.78-11.48 13.05-11.48 6.53 0 10.62 1.82 14.44 5.31l4.27-4.27c-5.27-4.79-10.52-6.79-18.41-6.79-12.27 0-19.83 7-19.83 17.49 0 5 1.56 8.79 4.69 11.58 2.7 2.34 6.53 3.91 11.4 4.69l7.22 1.13c4.53.7 6.09 1.22 8.09 3s3 4.53 3 7.75c0 7.22-5.56 11.48-14.62 11.48-7 0-11.74-1.65-16.87-6.78l-4.53 4.52c5.83 5.83 11.92 8.18 21.23 8.18 12.88 0 21.41-6.7 21.41-17.58-.04-5.17-1.87-9.46-5.3-12.3zm63.8-4.88h-29.41v-27.75h-6.61v61.95h6.61v-28.28h29.41v28.28h6.61v-61.95h-6.61v27.75zm33.23-27.75h6.61v61.95h-6.61zm65.34 32.63c-2.61-2.27-5.48-3.48-11.31-4.35l-6.79-1.05a17.8 17.8 0 01-8.35-3.39c-1.92-1.65-2.79-4.09-2.79-7.14 0-6.87 4.79-11.48 13.05-11.48 6.53 0 10.62 1.82 14.45 5.31l4.26-4.27c-5.31-4.79-10.53-6.79-18.45-6.79-12.26 0-19.83 7-19.83 17.49 0 5 1.56 8.79 4.7 11.58 2.69 2.34 6.52 3.91 11.39 4.69l7.22 1.13c4.53.7 6.1 1.22 8.1 3s3 4.53 3 7.75c0 7.22-5.57 11.48-14.62 11.48-7 0-11.75-1.65-16.88-6.78l-4.52 4.48c5.83 5.83 11.92 8.18 21.23 8.18 12.88 0 21.41-6.7 21.41-17.58-.05-5.13-1.88-9.42-5.27-12.26zm63.77-4.88h-29.41v-27.75h-6.62v61.95h6.62v-28.28h29.41v28.28h6.61v-61.95h-6.61v27.75zm48.11-27.75l-22.8 62h7l5-14h27.07l5 14h7l-22.71-62zm-8.79 42.2l11.66-32.73 11.48 32.72zm89.54-174.43a2.37 2.37 0 00-2.36 2.37 9.91 9.91 0 01-9.9 9.89H403.9a14.64 14.64 0 00-14.63 14.63v2.18a2.37 2.37 0 004.74 0v-2.18a9.91 9.91 0 019.89-9.9h45.77a14.64 14.64 0 0014.63-14.62 2.37 2.37 0 00-2.4-2.37z" fill="#e9a854"/></svg>