<?xml version="1.0" encoding="utf-8"?>
<!-- Generator: Adobe Illustrator 23.0.0, SVG Export Plug-In . SVG Version: 6.00 Build 0)  -->
<svg version="1.1" id="Слой_1" xmlns="http://www.w3.org/2000/svg" xmlns:xlink="http://www.w3.org/1999/xlink" x="0px" y="0px"
	 viewBox="0 0 130.9 148" style="enable-background:new 0 0 130.9 148;" xml:space="preserve">
<g id="Page-1">
	<g>
		<path d="M22.8,148c-3.1,0-5.7-2.6-5.7-5.7c0-5.9-2.5-8.7-6.9-13.1l-0.1-0.1L10,129c-6.3-5.1-10-12.7-10-20.9s3.6-15.8,10-20.9
			l0.1-0.1l0.1-0.1c4.1-4.2,6.8-7,6.8-13.1c0-5.9-2.5-8.6-6.9-13l-0.1-0.1L10,60.7C3.6,55.6,0,48,0,39.8S3.6,24,10,18.9l0.1-0.1
			l0.1-0.1c4-4,6.9-6.9,6.9-13c0-3.1,2.6-5.7,5.7-5.7c3.1,0,5.7,2.6,5.7,5.7c-0.1,8.1-3.7,15.8-10,20.9l-0.1,0.1l-0.1,0.1
			c-4.4,4.4-6.9,7.1-6.9,13c0,5.9,2.5,8.6,6.9,13l0.1,0.1l0.1,0.1c6.3,5.1,10,12.7,10,20.9s-3.6,15.8-10,20.9l-0.1,0.1L18.2,95
			c-4.1,4.2-6.8,7-6.8,13.1c0,6.1,2.7,8.9,6.8,13.1l0.1,0.1l0.1,0.1c6.3,5.2,9.9,12.8,10,21C28.5,145.5,25.9,148,22.8,148z"/>
		<path d="M74,148c-3.1,0-5.7-2.6-5.7-5.7c0-5.9-2.5-8.7-6.9-13.1l-0.1-0.1l-0.1-0.1c-6.3-5.1-10-12.7-10-20.9s3.6-15.8,10-20.9
			l0.1-0.1l0.1-0.1c4.1-4.2,6.8-7,6.8-13.1c0-5.9-2.5-8.6-6.9-13l-0.1-0.1l-0.1-0.1c-6.3-5.1-10-12.7-10-20.9
			c0-8.2,3.6-15.8,10-20.9l0.1-0.1l0.1-0.1c4-4,6.9-6.9,6.9-13C68.3,2.6,70.8,0,74,0s5.7,2.6,5.7,5.7c-0.1,8.1-3.7,15.8-10,20.9
			l-0.1,0.1l-0.1,0.1c-4.4,4.4-6.9,7.1-6.9,13c0,5.9,2.5,8.6,6.9,13l0.1,0.1l0.1,0.1c6.3,5.1,10,12.7,10,20.9
			c0,8.2-3.6,15.8-10,20.9l-0.1,0.1L69.4,95c-4.1,4.2-6.8,7-6.8,13.1c0,6.1,2.7,8.9,6.8,13.1l0.1,0.1l0.1,0.1
			c6.3,5.2,9.9,12.8,10,21C79.7,145.5,77.1,148,74,148z"/>
		<path d="M125.2,148c-3.1,0-5.7-2.6-5.7-5.7c0-5.9-2.5-8.7-6.9-13.1l-0.1-0.1l-0.1-0.1c-6.3-5.1-10-12.7-10-20.9s3.6-15.8,10-20.9
			l0.1-0.1l0.1-0.1c4.1-4.2,6.8-7,6.8-13.1c0-5.9-2.5-8.6-6.9-13l-0.1-0.1l-0.1-0.1c-6.3-5.1-10-12.7-10-20.9s3.6-15.8,10-20.9
			l0.1-0.1l0.1-0.1c4-4,6.9-6.9,6.9-13c0-3.1,2.6-5.7,5.7-5.7s5.7,2.6,5.7,5.7c-0.1,8.1-3.7,15.8-10,20.9l-0.1,0.1l-0.1,0.1
			c-4.4,4.4-6.9,7.1-6.9,13c0,5.9,2.5,8.6,6.9,13l0.1,0.1l0.1,0.1c6.3,5.1,10,12.7,10,20.9c0,8.2-3.6,15.8-10,20.9l-0.1,0.1
			l-0.1,0.1c-4.1,4.2-6.8,7-6.8,13.1c0,6.1,2.7,8.9,6.8,13.1l0.1,0.1l0.1,0.1c6.3,5.2,9.9,12.8,10,21
			C130.9,145.5,128.3,148,125.2,148z"/>
	</g>
</g>
</svg>
