<svg xmlns="http://www.w3.org/2000/svg" viewBox="0 0 130.9 148"><path d="M22.8 148c-3.1 0-5.7-2.6-5.7-5.7 0-5.9-2.5-8.7-6.9-13.1l-.1-.1-.1-.1c-6.3-5.1-10-12.7-10-20.9s3.6-15.8 10-20.9l.1-.1.1-.1c4.1-4.2 6.8-7 6.8-13.1 0-5.9-2.5-8.6-6.9-13l-.1-.1v-.1C3.6 55.6 0 48 0 39.8S3.6 24 10 18.9l.1-.1.1-.1c4-4 6.9-6.9 6.9-13 0-3.1 2.6-5.7 5.7-5.7s5.7 2.6 5.7 5.7c-.1 8.1-3.7 15.8-10 20.9l-.1.1-.1.1c-4.4 4.4-6.9 7.1-6.9 13s2.5 8.6 6.9 13l.1.1.1.1c6.3 5.1 10 12.7 10 20.9s-3.6 15.8-10 20.9l-.1.1-.2.1c-4.1 4.2-6.8 7-6.8 13.1s2.7 8.9 6.8 13.1l.1.1.1.1c6.3 5.2 9.9 12.8 10 21 .1 3.1-2.5 5.6-5.6 5.6zm51.2 0c-3.1 0-5.7-2.6-5.7-5.7 0-5.9-2.5-8.7-6.9-13.1l-.1-.1-.1-.1c-6.3-5.1-10-12.7-10-20.9s3.6-15.8 10-20.9l.1-.1.1-.1c4.1-4.2 6.8-7 6.8-13.1 0-5.9-2.5-8.6-6.9-13l-.1-.1-.1-.1c-6.3-5.1-10-12.7-10-20.9s3.6-15.8 10-20.9l.1-.1.1-.1c4-4 6.9-6.9 6.9-13C68.3 2.6 70.8 0 74 0s5.7 2.6 5.7 5.7c-.1 8.1-3.7 15.8-10 20.9l-.1.1-.1.1c-4.4 4.4-6.9 7.1-6.9 13s2.5 8.6 6.9 13l.1.1.1.1c6.3 5.1 10 12.7 10 20.9s-3.6 15.8-10 20.9l-.1.1-.2.1c-4.1 4.2-6.8 7-6.8 13.1s2.7 8.9 6.8 13.1l.1.1.1.1c6.3 5.2 9.9 12.8 10 21 .1 3.1-2.5 5.6-5.6 5.6zm51.2 0c-3.1 0-5.7-2.6-5.7-5.7 0-5.9-2.5-8.7-6.9-13.1l-.1-.1-.1-.1c-6.3-5.1-10-12.7-10-20.9s3.6-15.8 10-20.9l.1-.1.1-.1c4.1-4.2 6.8-7 6.8-13.1 0-5.9-2.5-8.6-6.9-13l-.1-.1-.1-.1c-6.3-5.1-10-12.7-10-20.9s3.6-15.8 10-20.9l.1-.1.1-.1c4-4 6.9-6.9 6.9-13 0-3.1 2.6-5.7 5.7-5.7s5.7 2.6 5.7 5.7c-.1 8.1-3.7 15.8-10 20.9l-.1.1-.1.1c-4.4 4.4-6.9 7.1-6.9 13s2.5 8.6 6.9 13l.1.1.1.1c6.3 5.1 10 12.7 10 20.9s-3.6 15.8-10 20.9l-.1.1-.1.1c-4.1 4.2-6.8 7-6.8 13.1s2.7 8.9 6.8 13.1l.1.1.1.1c6.3 5.2 9.9 12.8 10 21 .1 3.1-2.5 5.6-5.6 5.6z"/></svg>