<svg xmlns="http://www.w3.org/2000/svg" viewBox="0 0 367.92 367.92"><path d="M367.851 6.944a7.49 7.49 0 00-.248-1.248 8.304 8.304 0 00-.528-1.296c-.112-.232-.152-.48-.288-.704-.088-.144-.232-.24-.336-.376-.264-.368-.576-.688-.904-1.016a7.817 7.817 0 00-1.032-.896c-.136-.096-.224-.232-.36-.312-.224-.136-.472-.168-.704-.28a8.32 8.32 0 00-1.336-.536 8.42 8.42 0 00-1.176-.208 8.207 8.207 0 00-1.4-.064c-.44.024-.864.112-1.296.216-.272.064-.552.04-.824.136l-352 120a7.973 7.973 0 00-5.416 7.408 7.997 7.997 0 005.136 7.624l164.456 63.192 71.064 164.512a8.01 8.01 0 007.344 4.824c.136 0 .264 0 .4-.008a8.004 8.004 0 007.224-5.56l112-352c.08-.248.056-.504.104-.76a7.56 7.56 0 00.184-1.336 7.968 7.968 0 00-.064-1.312zM31.475 128.368L330.011 26.592 173.619 182.984 31.475 128.368zm215.384 208.744l-61.76-142.976L342.403 36.824l-95.544 300.288z"/><path d="M125.659 242.264a7.991 7.991 0 00-11.312 0l-112 112a7.991 7.991 0 000 11.312c1.56 1.56 3.608 2.344 5.656 2.344s4.096-.784 5.656-2.344l112-112a7.991 7.991 0 000-11.312zm20.688 56l-56 56a7.991 7.991 0 000 11.312 7.978 7.978 0 005.656 2.344 7.978 7.978 0 005.656-2.344l56-56a7.991 7.991 0 000-11.312 7.991 7.991 0 00-11.312 0zM8.003 279.92a7.978 7.978 0 005.656-2.344l56-56a7.991 7.991 0 000-11.312 7.991 7.991 0 00-11.312 0l-56 56a7.991 7.991 0 000 11.312 7.978 7.978 0 005.656 2.344z"/></svg>